<svg width="21" height="22" viewBox="0 0 21 22" fill="none" xmlns="http://www.w3.org/2000/svg">
<path d="M10.5 16.49C9.31688 15.0055 8.62125 13.7042 8.39063 12.5909C7.3336 8.46594 13.6692 8.46594 12.6122 12.5909C12.3567 13.7277 11.6611 15.0284 10.5028 16.49H10.5ZM16.9758 19.9227C15.0042 20.7809 13.0538 19.4127 11.3836 17.5569C16.2539 11.4598 13.545 8.18187 10.5 8.18187C7.92563 8.18187 6.50813 10.362 7.065 12.8928C7.38985 14.2611 8.24766 15.8173 9.61641 17.5569C8.09157 19.2467 6.77813 20.0267 5.625 20.1312C3.28125 20.4795 1.44797 18.2066 2.28282 15.8614C2.99063 14.0258 7.51969 5.02484 7.71422 4.53828C8.4525 3.12875 8.91235 1.84766 10.4977 1.84766C12.0136 1.84766 12.532 3.06359 13.3275 4.65406C15.015 7.96437 17.5158 12.9734 18.7106 15.8614C19.328 17.4116 18.6464 19.2031 16.9758 19.9227ZM19.1789 13.542C13.1377 0.68422 12.803 0.5 10.5 0.5C8.36625 0.5 7.45922 1.98453 6.53157 3.91203C1.55532 13.8641 1.07297 15.2745 1.03125 15.3973C-0.150934 18.6472 2.28469 21.5 5.23266 21.5C6.25032 21.5 8.07375 21.2159 10.5 18.575C13.2506 21.5647 15.2466 21.5 15.7673 21.5C18.7153 21.5023 21.1509 18.6472 19.9678 15.3973C19.9688 15.215 19.1794 13.5739 19.1794 13.542H19.1789Z" fill="#1F2937"/>
</svg>
