<svg width="22" height="22" viewBox="0 0 22 22" fill="none" xmlns="http://www.w3.org/2000/svg">
<path d="M12.4469 6.62656C10.1641 6.71094 4.50155 7.35313 4.50155 12.1344C4.50155 17.2672 10.9844 17.4781 13.1031 14.1594C13.4078 14.6375 14.7625 15.9172 15.2265 16.3531L17.889 13.7281C17.889 13.7281 16.375 12.5422 16.375 11.2531V4.35781C16.375 3.17188 15.2266 0.5 11.1109 0.5C6.98592 0.5 4.79686 3.07813 4.79686 5.38906L8.24218 5.70781C9.00624 3.3875 10.7828 3.3875 10.7828 3.3875C12.6906 3.38281 12.4469 4.78437 12.4469 6.62656ZM12.4469 10.6953C12.4469 14.4453 8.49999 13.8828 8.49999 11.5016C8.49999 9.28906 10.8672 8.84375 12.4469 8.79219V10.6953ZM18.8219 18.3594C18.4609 18.8281 15.5406 21.5 10.6422 21.5C5.74374 21.5 1.99374 18.1484 0.8453 16.7656C0.52655 16.4047 0.892175 16.2359 1.10311 16.3766C4.53905 18.4625 9.90624 21.8984 18.564 17.7969C18.9156 17.6234 19.1875 17.8906 18.8219 18.3594ZM20.6875 18.4625C20.3828 19.2031 19.9375 19.7188 19.6937 19.9156C19.4359 20.1266 19.2484 20.0422 19.389 19.7375C19.5297 19.4328 20.2937 17.5578 19.9844 17.1594C19.6797 16.7703 18.25 16.9578 17.7344 17.0094C17.2281 17.0563 17.125 17.1031 17.0781 16.9953C16.9703 16.7281 18.0953 16.2687 18.8359 16.175C19.5719 16.0906 20.7578 16.1375 20.9922 16.4422C21.1656 16.6812 20.9922 17.7125 20.6875 18.4625Z" fill="white"/>
</svg>
