<svg width="21" height="21" viewBox="0 0 21 21" fill="none" xmlns="http://www.w3.org/2000/svg">
<path d="M11.7268 6.12656C9.44396 6.21094 3.78146 6.85313 3.78146 11.6344C3.78146 16.7672 10.2643 16.9781 12.383 13.6594C12.6877 14.1375 14.0424 15.4172 14.5065 15.8531L17.169 13.2281C17.169 13.2281 15.6549 12.0422 15.6549 10.7531V3.85781C15.6549 2.67188 14.5065 0 10.3908 0C6.26583 0 4.07677 2.57813 4.07677 4.88906L7.52208 5.20781C8.28614 2.8875 10.0627 2.8875 10.0627 2.8875C11.9705 2.88281 11.7268 4.28437 11.7268 6.12656ZM11.7268 10.1953C11.7268 13.9453 7.77989 13.3828 7.77989 11.0016C7.77989 8.78906 10.1471 8.34375 11.7268 8.29219V10.1953ZM18.1018 17.8594C17.7408 18.3281 14.8205 21 9.92208 21C5.02364 21 1.27364 17.6484 0.125207 16.2656C-0.193543 15.9047 0.172082 15.7359 0.383019 15.8766C3.81896 17.9625 9.18614 21.3984 17.844 17.2969C18.1955 17.1234 18.4674 17.3906 18.1018 17.8594ZM19.9674 17.9625C19.6627 18.7031 19.2174 19.2188 18.9736 19.4156C18.7158 19.6266 18.5283 19.5422 18.669 19.2375C18.8096 18.9328 19.5736 17.0578 19.2643 16.6594C18.9596 16.2703 17.5299 16.4578 17.0143 16.5094C16.508 16.5563 16.4049 16.6031 16.358 16.4953C16.2502 16.2281 17.3752 15.7687 18.1158 15.675C18.8518 15.5906 20.0377 15.6375 20.2721 15.9422C20.4455 16.1813 20.2721 17.2125 19.9674 17.9625Z" fill="#1F2937"/>
</svg>
