<svg width="25" height="22" viewBox="0 0 25 22" fill="none" xmlns="http://www.w3.org/2000/svg">
<path d="M0.796875 3.5C0.796875 1.84531 2.14219 0.5 3.79688 0.5H21.7969C23.4516 0.5 24.7969 1.84531 24.7969 3.5V18.5C24.7969 20.1547 23.4516 21.5 21.7969 21.5H3.79688C2.14219 21.5 0.796875 20.1547 0.796875 18.5V3.5ZM3.04688 16.25V17.75C3.04688 18.1625 3.38438 18.5 3.79688 18.5H5.29688C5.70937 18.5 6.04688 18.1625 6.04688 17.75V16.25C6.04688 15.8375 5.70937 15.5 5.29688 15.5H3.79688C3.38438 15.5 3.04688 15.8375 3.04688 16.25ZM20.2969 15.5C19.8844 15.5 19.5469 15.8375 19.5469 16.25V17.75C19.5469 18.1625 19.8844 18.5 20.2969 18.5H21.7969C22.2094 18.5 22.5469 18.1625 22.5469 17.75V16.25C22.5469 15.8375 22.2094 15.5 21.7969 15.5H20.2969ZM3.04688 10.25V11.75C3.04688 12.1625 3.38438 12.5 3.79688 12.5H5.29688C5.70937 12.5 6.04688 12.1625 6.04688 11.75V10.25C6.04688 9.8375 5.70937 9.5 5.29688 9.5H3.79688C3.38438 9.5 3.04688 9.8375 3.04688 10.25ZM20.2969 9.5C19.8844 9.5 19.5469 9.8375 19.5469 10.25V11.75C19.5469 12.1625 19.8844 12.5 20.2969 12.5H21.7969C22.2094 12.5 22.5469 12.1625 22.5469 11.75V10.25C22.5469 9.8375 22.2094 9.5 21.7969 9.5H20.2969ZM3.04688 4.25V5.75C3.04688 6.1625 3.38438 6.5 3.79688 6.5H5.29688C5.70937 6.5 6.04688 6.1625 6.04688 5.75V4.25C6.04688 3.8375 5.70937 3.5 5.29688 3.5H3.79688C3.38438 3.5 3.04688 3.8375 3.04688 4.25ZM20.2969 3.5C19.8844 3.5 19.5469 3.8375 19.5469 4.25V5.75C19.5469 6.1625 19.8844 6.5 20.2969 6.5H21.7969C22.2094 6.5 22.5469 6.1625 22.5469 5.75V4.25C22.5469 3.8375 22.2094 3.5 21.7969 3.5H20.2969ZM8.29688 5V8C8.29688 8.82969 8.96719 9.5 9.79688 9.5H15.7969C16.6266 9.5 17.2969 8.82969 17.2969 8V5C17.2969 4.17031 16.6266 3.5 15.7969 3.5H9.79688C8.96719 3.5 8.29688 4.17031 8.29688 5ZM9.79688 12.5C8.96719 12.5 8.29688 13.1703 8.29688 14V17C8.29688 17.8297 8.96719 18.5 9.79688 18.5H15.7969C16.6266 18.5 17.2969 17.8297 17.2969 17V14C17.2969 13.1703 16.6266 12.5 15.7969 12.5H9.79688Z" fill="white"/>
</svg>
