<svg width="22" height="24" viewBox="0 0 22 24" fill="none" xmlns="http://www.w3.org/2000/svg">
<path d="M5.09375 0C2.60938 0 0.59375 2.01562 0.59375 4.5V19.5C0.59375 21.9844 2.60938 24 5.09375 24H18.5938H20.0938C20.9234 24 21.5938 23.3297 21.5938 22.5C21.5938 21.6703 20.9234 21 20.0938 21V18C20.9234 18 21.5938 17.3297 21.5938 16.5V1.5C21.5938 0.670312 20.9234 0 20.0938 0H18.5938H5.09375ZM5.09375 18H17.0938V21H5.09375C4.26406 21 3.59375 20.3297 3.59375 19.5C3.59375 18.6703 4.26406 18 5.09375 18ZM6.59375 6.75C6.59375 6.3375 6.93125 6 7.34375 6H16.3438C16.7563 6 17.0938 6.3375 17.0938 6.75C17.0938 7.1625 16.7563 7.5 16.3438 7.5H7.34375C6.93125 7.5 6.59375 7.1625 6.59375 6.75ZM7.34375 9H16.3438C16.7563 9 17.0938 9.3375 17.0938 9.75C17.0938 10.1625 16.7563 10.5 16.3438 10.5H7.34375C6.93125 10.5 6.59375 10.1625 6.59375 9.75C6.59375 9.3375 6.93125 9 7.34375 9Z" fill="white"/>
</svg>
