<svg width="25" height="24" viewBox="0 0 25 24" fill="none" xmlns="http://www.w3.org/2000/svg">
<path d="M10.1406 4.5C10.7374 4.5 11.3097 4.26295 11.7316 3.84099C12.1536 3.41903 12.3906 2.84674 12.3906 2.25C12.3906 1.65326 12.1536 1.08097 11.7316 0.65901C11.3097 0.237053 10.7374 0 10.1406 0C9.54389 0 8.97159 0.237053 8.54963 0.65901C8.12768 1.08097 7.89062 1.65326 7.89062 2.25C7.89062 2.84674 8.12768 3.41903 8.54963 3.84099C8.97159 4.26295 9.54389 4.5 10.1406 4.5ZM15.3906 12C16.1863 12 16.9493 11.6839 17.5119 11.1213C18.0746 10.5587 18.3906 9.79565 18.3906 9C18.3906 8.20435 18.0746 7.44129 17.5119 6.87868C16.9493 6.31607 16.1863 6 15.3906 6C14.595 6 13.8319 6.31607 13.2693 6.87868C12.7067 7.44129 12.3906 8.20435 12.3906 9C12.3906 9.79565 12.7067 10.5587 13.2693 11.1213C13.8319 11.6839 14.595 12 15.3906 12ZM19.8906 1.5C19.8906 1.10218 19.7326 0.720644 19.4513 0.43934C19.17 0.158035 18.7885 0 18.3906 0C17.9928 0 17.6113 0.158035 17.33 0.43934C17.0487 0.720644 16.8906 1.10218 16.8906 1.5C16.8906 1.89782 17.0487 2.27936 17.33 2.56066C17.6113 2.84196 17.9928 3 18.3906 3C18.7885 3 19.17 2.84196 19.4513 2.56066C19.7326 2.27936 19.8906 1.89782 19.8906 1.5ZM19.8906 9C19.8906 10.2937 19.3422 11.4609 18.4656 12.2859C20.1766 12.9234 21.3906 14.5688 21.3906 16.5C21.3906 18.9844 19.375 21 16.8906 21H7.89062C5.40625 21 3.39062 18.9844 3.39062 16.5C3.39062 14.0156 5.40625 12 7.89062 12H12.0344C11.3219 11.2031 10.8906 10.1531 10.8906 9H4.89062C2.40625 9 0.390625 11.0156 0.390625 13.5V19.5C0.390625 21.9844 2.40625 24 4.89062 24H19.8906C22.375 24 24.3906 21.9844 24.3906 19.5V13.5C24.3906 11.0156 22.375 9 19.8906 9ZM7.89062 13.5C6.23594 13.5 4.89062 14.8453 4.89062 16.5C4.89062 18.1547 6.23594 19.5 7.89062 19.5H16.8906C18.5453 19.5 19.8906 18.1547 19.8906 16.5C19.8906 14.8453 18.5453 13.5 16.8906 13.5H15.3906H7.89062Z" fill="white"/>
</svg>
