<svg width="24" height="24" viewBox="0 0 24 24" fill="none" xmlns="http://www.w3.org/2000/svg">
<path d="M9.75 4.5C10.3467 4.5 10.919 4.26295 11.341 3.84099C11.7629 3.41903 12 2.84674 12 2.25C12 1.65326 11.7629 1.08097 11.341 0.65901C10.919 0.237053 10.3467 0 9.75 0C9.15326 0 8.58097 0.237053 8.15901 0.65901C7.73705 1.08097 7.5 1.65326 7.5 2.25C7.5 2.84674 7.73705 3.41903 8.15901 3.84099C8.58097 4.26295 9.15326 4.5 9.75 4.5ZM15 12C15.7956 12 16.5587 11.6839 17.1213 11.1213C17.6839 10.5587 18 9.79565 18 9C18 8.20435 17.6839 7.44129 17.1213 6.87868C16.5587 6.31607 15.7956 6 15 6C14.2044 6 13.4413 6.31607 12.8787 6.87868C12.3161 7.44129 12 8.20435 12 9C12 9.79565 12.3161 10.5587 12.8787 11.1213C13.4413 11.6839 14.2044 12 15 12ZM19.5 1.5C19.5 1.10218 19.342 0.720644 19.0607 0.43934C18.7794 0.158035 18.3978 0 18 0C17.6022 0 17.2206 0.158035 16.9393 0.43934C16.658 0.720644 16.5 1.10218 16.5 1.5C16.5 1.89782 16.658 2.27936 16.9393 2.56066C17.2206 2.84196 17.6022 3 18 3C18.3978 3 18.7794 2.84196 19.0607 2.56066C19.342 2.27936 19.5 1.89782 19.5 1.5ZM19.5 9C19.5 10.2938 18.9516 11.4609 18.075 12.2859C19.7859 12.9234 21 14.5687 21 16.5C21 18.9844 18.9844 21 16.5 21H7.5C5.01562 21 3 18.9844 3 16.5C3 14.0156 5.01562 12 7.5 12H11.6437C10.9312 11.2031 10.5 10.1531 10.5 9H4.5C2.01562 9 0 11.0156 0 13.5V19.5C0 21.9844 2.01562 24 4.5 24H19.5C21.9844 24 24 21.9844 24 19.5V13.5C24 11.0156 21.9844 9 19.5 9ZM7.5 13.5C5.84531 13.5 4.5 14.8453 4.5 16.5C4.5 18.1547 5.84531 19.5 7.5 19.5H16.5C18.1547 19.5 19.5 18.1547 19.5 16.5C19.5 14.8453 18.1547 13.5 16.5 13.5H15H7.5Z" fill="#1F2937"/>
</svg>
