<svg width="20" height="30" viewBox="0 0 20 30" fill="none" xmlns="http://www.w3.org/2000/svg">
<path d="M3.14062 1.875C3.14062 0.837891 3.97852 0 5.01562 0C6.05273 0 6.89062 0.837891 6.89062 1.875V3.75H8.76562V1.875C8.76562 0.837891 9.60352 0 10.6406 0C11.6777 0 12.5156 0.837891 12.5156 1.875V3.75C12.5156 3.83789 12.5098 3.93164 12.498 4.01367C15.2168 4.81641 17.2031 7.33008 17.2031 10.3125C17.2031 11.7305 16.752 13.043 15.9902 14.1152C17.8477 15.2754 19.0781 17.3379 19.0781 19.6875C19.0781 23.3145 16.1426 26.25 12.5156 26.25V28.125C12.5156 29.1621 11.6777 30 10.6406 30C9.60352 30 8.76562 29.1621 8.76562 28.125V26.25H6.89062V28.125C6.89062 29.1621 6.05273 30 5.01562 30C3.97852 30 3.14062 29.1621 3.14062 28.125V26.25H2.77148C1.42383 26.25 0.328125 25.1543 0.328125 23.8066V16.875V15.5684V13.125V5.95312C0.328125 4.73438 1.3125 3.75 2.53125 3.75H3.14062V1.875ZM4.07812 13.125H10.6406C12.1934 13.125 13.4531 11.8652 13.4531 10.3125C13.4531 8.75977 12.1934 7.5 10.6406 7.5H4.07812V13.125ZM10.6406 16.875H4.07812V22.5H12.5156C14.0684 22.5 15.3281 21.2402 15.3281 19.6875C15.3281 18.1348 14.0684 16.875 12.5156 16.875H10.6406Z" fill="#6366F1"/>
</svg>
