<svg width="34" height="28" viewBox="0 0 34 28" fill="none" xmlns="http://www.w3.org/2000/svg">
<path d="M3.75 0.875C1.68164 0.875 0 2.55664 0 4.625V6.5H33.75V4.625C33.75 2.55664 32.0684 0.875 30 0.875H3.75ZM33.75 12.125H0V23.375C0 25.4434 1.68164 27.125 3.75 27.125H30C32.0684 27.125 33.75 25.4434 33.75 23.375V12.125ZM6.5625 19.625H10.3125C10.8281 19.625 11.25 20.0469 11.25 20.5625C11.25 21.0781 10.8281 21.5 10.3125 21.5H6.5625C6.04688 21.5 5.625 21.0781 5.625 20.5625C5.625 20.0469 6.04688 19.625 6.5625 19.625ZM13.125 20.5625C13.125 20.0469 13.5469 19.625 14.0625 19.625H21.5625C22.0781 19.625 22.5 20.0469 22.5 20.5625C22.5 21.0781 22.0781 21.5 21.5625 21.5H14.0625C13.5469 21.5 13.125 21.0781 13.125 20.5625Z" fill="#3B82F6"/>
</svg>
