<svg width="24" height="22" viewBox="0 0 24 22" fill="none" xmlns="http://www.w3.org/2000/svg">
<path d="M3 2C3 1.17031 2.32969 0.5 1.5 0.5C0.670312 0.5 0 1.17031 0 2V17.75C0 19.8219 1.67812 21.5 3.75 21.5H22.5C23.3297 21.5 24 20.8297 24 20C24 19.1703 23.3297 18.5 22.5 18.5H3.75C3.3375 18.5 3 18.1625 3 17.75V2ZM22.0594 6.05938C22.6453 5.47344 22.6453 4.52188 22.0594 3.93594C21.4734 3.35 20.5219 3.35 19.9359 3.93594L15 8.87656L12.3094 6.18594C11.7234 5.6 10.7719 5.6 10.1859 6.18594L4.93594 11.4359C4.35 12.0219 4.35 12.9734 4.93594 13.5594C5.52188 14.1453 6.47344 14.1453 7.05938 13.5594L11.25 9.37344L13.9406 12.0641C14.5266 12.65 15.4781 12.65 16.0641 12.0641L22.0641 6.06406L22.0594 6.05938Z" fill="#3B82F6"/>
</svg>
