<svg width="13" height="15" viewBox="0 0 13 15" fill="none" xmlns="http://www.w3.org/2000/svg">
<path d="M4.42188 4.6875V6H8.79688V4.6875C8.79688 3.47891 7.81797 2.5 6.60938 2.5C5.40078 2.5 4.42188 3.47891 4.42188 4.6875ZM2.67188 6V4.6875C2.67188 2.51367 4.43555 0.75 6.60938 0.75C8.7832 0.75 10.5469 2.51367 10.5469 4.6875V6H10.9844C11.9496 6 12.7344 6.78477 12.7344 7.75V13C12.7344 13.9652 11.9496 14.75 10.9844 14.75H2.23438C1.26914 14.75 0.484375 13.9652 0.484375 13V7.75C0.484375 6.78477 1.26914 6 2.23438 6H2.67188Z" fill="#9CA3AF"/>
</svg>
