<svg width="31" height="30" viewBox="0 0 31 30" fill="none" xmlns="http://www.w3.org/2000/svg">
<path d="M30.75 4.6875C30.75 5.74219 29.9121 6.71484 28.5 7.5C26.7949 8.44336 24.252 9.11133 21.334 9.31055C21.1172 9.20508 20.9004 9.10547 20.6719 9.01758C18.3633 8.05078 15.293 7.5 12 7.5C11.5137 7.5 11.0391 7.51172 10.5645 7.53516L10.5 7.5C9.08789 6.71484 8.25 5.74219 8.25 4.6875C8.25 2.09766 13.2891 0 19.5 0C25.7109 0 30.75 2.09766 30.75 4.6875ZM10.166 9.43945C10.7637 9.39844 11.3789 9.375 12 9.375C15.6445 9.375 18.8789 10.0957 20.9355 11.2148C22.3887 12.0059 23.25 12.9902 23.25 14.0625C23.25 14.2969 23.209 14.5254 23.127 14.748C22.8574 15.5215 22.1309 16.2305 21.0762 16.8281C21.0703 16.834 21.0586 16.834 21.0527 16.8398C21.0352 16.8516 21.0176 16.8574 21 16.8691C18.9492 18.0059 15.6797 18.7441 12 18.7441C8.50781 18.7441 5.38477 18.082 3.31641 17.0391C3.20508 16.9863 3.09961 16.9277 2.99414 16.8691C1.58789 16.0898 0.75 15.1172 0.75 14.0625C0.75 12.0234 3.87891 10.2832 8.25 9.64453C8.86523 9.55664 9.50391 9.48633 10.166 9.43945ZM25.125 14.0625C25.125 12.7793 24.5039 11.7246 23.7129 10.9336C25.3711 10.6758 26.8887 10.2656 28.1777 9.73242C29.1328 9.33398 30.0234 8.8418 30.75 8.23828V10.3125C30.75 11.4434 29.7832 12.4863 28.1836 13.2949C27.3281 13.7285 26.2852 14.0977 25.1133 14.3789C25.1191 14.2734 25.125 14.1738 25.125 14.0684V14.0625ZM23.25 19.6875C23.25 20.7422 22.4121 21.7148 21 22.5C20.8945 22.5586 20.7891 22.6113 20.6777 22.6699C18.6152 23.7129 15.4922 24.375 12 24.375C8.32031 24.375 5.05078 23.6367 3 22.5C1.58789 21.7148 0.75 20.7422 0.75 19.6875V17.6133C1.48242 18.2168 2.36719 18.709 3.32227 19.1074C5.63672 20.0742 8.70703 20.625 12 20.625C15.293 20.625 18.3633 20.0742 20.6777 19.1074C21.1348 18.9199 21.5742 18.7031 21.9902 18.4688C22.3477 18.2695 22.6816 18.0469 22.998 17.8125C23.0859 17.748 23.168 17.6777 23.25 17.6133V17.8125V18.1465V19.6875ZM25.125 19.6875V17.8125V16.2949C26.2383 16.0488 27.2637 15.7383 28.1777 15.3574C29.1328 14.959 30.0234 14.4668 30.75 13.8633V15.9375C30.75 16.5527 30.457 17.168 29.877 17.748C28.9219 18.7031 27.2402 19.4883 25.1133 19.998C25.1191 19.8984 25.125 19.793 25.125 19.6875ZM12 26.25C15.293 26.25 18.3633 25.6992 20.6777 24.7324C21.6328 24.334 22.5234 23.8418 23.25 23.2383V25.3125C23.25 27.9023 18.2109 30 12 30C5.78906 30 0.75 27.9023 0.75 25.3125V23.2383C1.48242 23.8418 2.36719 24.334 3.32227 24.7324C5.63672 25.6992 8.70703 26.25 12 26.25Z" fill="#1F2937"/>
</svg>
