<svg width="11" height="10" viewBox="0 0 11 10" fill="none" xmlns="http://www.w3.org/2000/svg">
<path d="M10.503 1.70627C10.8937 1.31565 10.8937 0.681274 10.503 0.290649C10.1124 -0.0999756 9.47803 -0.0999756 9.0874 0.290649L5.79678 3.5844L2.50303 0.293774C2.1124 -0.0968506 1.47803 -0.0968506 1.0874 0.293774C0.696777 0.684399 0.696777 1.31877 1.0874 1.7094L4.38115 5.00002L1.09053 8.29377C0.699902 8.6844 0.699902 9.31878 1.09053 9.7094C1.48115 10.1 2.11553 10.1 2.50615 9.7094L5.79678 6.41565L9.09053 9.70627C9.48115 10.0969 10.1155 10.0969 10.5062 9.70627C10.8968 9.31565 10.8968 8.68127 10.5062 8.29065L7.2124 5.00002L10.503 1.70627Z" fill="#9CA3AF"/>
</svg>
