<svg width="19" height="14" viewBox="0 0 19 14" fill="none" xmlns="http://www.w3.org/2000/svg">
<path d="M15.8916 1.18239C15.8865 1.1725 15.878 1.16474 15.8677 1.16052C14.6764 0.613914 13.4191 0.224141 12.1275 0.000956052C12.1158 -0.00122554 12.1037 0.000348287 12.0929 0.0054537C12.0821 0.0105591 12.0732 0.0189362 12.0674 0.0293935C11.8962 0.340109 11.7408 0.659265 11.6018 0.985644C10.2095 0.774294 8.79329 0.774294 7.401 0.985644C7.26105 0.658436 7.10315 0.339201 6.92803 0.0293935C6.92202 0.0191634 6.91307 0.0109793 6.90235 0.00590705C6.89162 0.000834804 6.87962 -0.000890457 6.8679 0.000956052C5.57615 0.223673 4.31885 0.613474 3.12765 1.16055C3.11745 1.16487 3.10885 1.17225 3.10303 1.18167C0.720871 4.73911 0.0683081 8.20908 0.388433 11.6361C0.389334 11.6445 0.391914 11.6526 0.396021 11.66C0.400128 11.6674 0.405677 11.6739 0.412339 11.679C1.79945 12.7061 3.35094 13.4901 5.00062 13.9975C5.01224 14.0009 5.02464 14.0008 5.03617 13.997C5.0477 13.9932 5.05779 13.986 5.06509 13.9763C5.4194 13.4942 5.73335 12.9837 6.00375 12.45C6.00746 12.4427 6.00958 12.4347 6.00997 12.4265C6.01036 12.4183 6.009 12.4101 6.00599 12.4024C6.00298 12.3948 5.99839 12.3879 5.99251 12.3821C5.98664 12.3764 5.97961 12.372 5.9719 12.3691C5.47683 12.1797 4.99754 11.9514 4.53853 11.6862C4.53019 11.6813 4.52319 11.6745 4.51814 11.6662C4.51309 11.658 4.51015 11.6486 4.50958 11.6389C4.50901 11.6293 4.51082 11.6196 4.51486 11.6108C4.5189 11.6021 4.52504 11.5944 4.53275 11.5885C4.62906 11.5164 4.72543 11.4413 4.8174 11.3655C4.82557 11.3588 4.83546 11.3545 4.84595 11.3531C4.85644 11.3516 4.86712 11.3532 4.87678 11.3575C7.88393 12.7299 11.1396 12.7299 14.1112 11.3575C14.1208 11.3529 14.1316 11.3512 14.1423 11.3524C14.1529 11.3537 14.163 11.358 14.1713 11.3648C14.2633 11.4406 14.3596 11.5164 14.4567 11.5885C14.4644 11.5943 14.4706 11.6019 14.4747 11.6107C14.4788 11.6195 14.4807 11.6291 14.4802 11.6387C14.4797 11.6484 14.4768 11.6578 14.4718 11.6661C14.4668 11.6744 14.4599 11.6813 14.4516 11.6862C13.9936 11.9536 13.5139 12.1818 13.0175 12.3684C13.0098 12.3714 13.0028 12.3759 12.997 12.3817C12.9911 12.3875 12.9866 12.3945 12.9836 12.4022C12.9807 12.4099 12.9794 12.4182 12.9799 12.4264C12.9803 12.4346 12.9825 12.4427 12.9863 12.45C13.2612 12.9808 13.5747 13.4906 13.9242 13.9755C13.9313 13.9854 13.9414 13.9929 13.9529 13.9968C13.9645 14.0007 13.977 14.0009 13.9887 13.9974C15.6413 13.4917 17.1955 12.7077 18.5844 11.679C18.5911 11.6741 18.5968 11.6678 18.6009 11.6605C18.605 11.6532 18.6075 11.6451 18.6083 11.6368C18.9915 7.67483 17.9667 4.2333 15.8916 1.18239ZM6.45284 9.54939C5.54746 9.54939 4.80146 8.71855 4.80146 7.69817C4.80146 6.6778 5.533 5.84689 6.45284 5.84689C7.37987 5.84689 8.11865 6.68502 8.10418 7.69811C8.10418 8.71855 7.37262 9.54939 6.45284 9.54939ZM12.5585 9.54939C11.6531 9.54939 10.9071 8.71855 10.9071 7.69817C10.9071 6.6778 11.6387 5.84689 12.5585 5.84689C13.4856 5.84689 14.2243 6.68502 14.2098 7.69811C14.2098 8.71855 13.4856 9.54939 12.5585 9.54939Z" fill="#9CA3AF"/>
</svg>
