<svg width="31" height="13" viewBox="0 0 31 13" fill="none" xmlns="http://www.w3.org/2000/svg">
<path d="M29 2.88291L26.4313 8.03447L23.8578 2.88291H22.1L22.611 3.84854C22.0719 2.95791 20.9281 2.62979 19.6438 2.62979C18.1531 2.62979 16.4609 3.0376 16.2922 4.6501H17.8719C17.9375 4.00322 18.6078 3.62822 19.5125 3.62822C20.7313 3.62822 21.4344 4.07822 21.4344 5.1751V5.33447C20.8391 5.33447 20.1219 5.33916 19.4797 5.35322C17.4922 5.39541 16.2172 5.82197 15.8844 6.96572C15.9313 6.72197 15.9547 6.46885 15.9547 6.20635C15.9547 3.76416 14.0938 2.63447 12.4203 2.63447C11.4219 2.63447 10.4047 2.89228 9.66876 3.76885V-0.00927734H8.16407V7.93603C8.16407 8.41885 8.13595 9.00947 8.11251 9.4876H9.58907C9.62189 9.19228 9.64064 8.88291 9.64064 8.57353C10.2781 9.35166 11.3 9.74072 12.3922 9.74072C14.1219 9.74072 15.4344 8.71416 15.8281 7.2001C15.8047 7.33135 15.7953 7.47197 15.7953 7.62197C15.7953 8.75166 16.7844 9.73135 18.6359 9.73135C19.8828 9.73135 20.7828 9.46416 21.5375 8.53604C21.5375 8.84541 21.5516 9.15947 21.5891 9.48291H22.986C22.9531 9.09853 22.9391 8.6626 22.9391 8.22666V5.15166C22.9391 4.71572 22.8594 4.34541 22.7141 4.03604L25.5969 9.47822L24.2609 12.0142H25.9438L30.5938 2.88291H29ZM12.0172 8.70947C10.6297 8.70947 9.66407 7.70166 9.66407 6.1876C9.66407 4.66885 10.6297 3.66572 12.0172 3.66572C13.4141 3.66572 14.3703 4.66885 14.3703 6.1876C14.3703 7.70166 13.4141 8.70947 12.0172 8.70947ZM21.4344 6.49228C21.4344 7.89853 20.5953 8.76103 19.0156 8.76103C17.8391 8.76103 17.375 8.13291 17.375 7.55166C17.375 6.65635 18.2234 6.40791 19.5875 6.36572C20.2016 6.34228 20.8813 6.3376 21.4344 6.3376V6.49228ZM2.12657 6.56729H8.16407V6.16885C8.16407 3.74541 6.61251 2.63447 4.48907 2.63447C1.82657 2.63447 0.59845 4.07822 0.59845 6.27197C0.59845 8.26416 1.78439 9.74072 4.46564 9.74072C5.93751 9.74072 7.65314 9.19229 7.95314 7.57979H6.40158C5.83908 9.25791 2.29064 9.3001 2.12657 6.56729ZM6.5797 5.56416H2.1547C2.47814 2.91104 6.47189 3.0001 6.5797 5.56416Z" fill="white"/>
</svg>
