<svg width="30" height="13" viewBox="0 0 30 13" fill="none" xmlns="http://www.w3.org/2000/svg">
<path d="M28.4016 2.89219L25.8328 8.04375L23.2594 2.89219H21.5016L22.0125 3.85781C21.4734 2.96719 20.3297 2.63906 19.0453 2.63906C17.5547 2.63906 15.8625 3.04687 15.6937 4.65937H17.2734C17.3391 4.0125 18.0094 3.6375 18.9141 3.6375C20.1328 3.6375 20.8359 4.0875 20.8359 5.18437V5.34375C20.2406 5.34375 19.5234 5.34844 18.8812 5.3625C16.8937 5.40469 15.6188 5.83125 15.2859 6.975C15.3328 6.73125 15.3563 6.47812 15.3563 6.21562C15.3563 3.77344 13.4953 2.64375 11.8219 2.64375C10.8234 2.64375 9.80625 2.90156 9.07031 3.77812V0H7.56562V7.94531C7.56562 8.42812 7.5375 9.01875 7.51406 9.49687H8.99062C9.02344 9.20156 9.04219 8.89219 9.04219 8.58281C9.67969 9.36094 10.7016 9.75 11.7937 9.75C13.5234 9.75 14.8359 8.72344 15.2297 7.20938C15.2062 7.34063 15.1969 7.48125 15.1969 7.63125C15.1969 8.76094 16.1859 9.74063 18.0375 9.74063C19.2844 9.74063 20.1844 9.47344 20.9391 8.54531C20.9391 8.85469 20.9531 9.16875 20.9906 9.49219H22.3875C22.3547 9.10781 22.3406 8.67187 22.3406 8.23594V5.16094C22.3406 4.725 22.2609 4.35469 22.1156 4.04531L24.9984 9.4875L23.6625 12.0234H25.3453L29.9953 2.89219H28.4016ZM11.4187 8.71875C10.0312 8.71875 9.06562 7.71094 9.06562 6.19687C9.06562 4.67812 10.0312 3.675 11.4187 3.675C12.8156 3.675 13.7719 4.67812 13.7719 6.19687C13.7719 7.71094 12.8156 8.71875 11.4187 8.71875ZM20.8359 6.50156C20.8359 7.90781 19.9969 8.77031 18.4172 8.77031C17.2406 8.77031 16.7766 8.14219 16.7766 7.56094C16.7766 6.66563 17.625 6.41719 18.9891 6.375C19.6031 6.35156 20.2828 6.34688 20.8359 6.34688V6.50156ZM1.52813 6.57656H7.56562V6.17813C7.56562 3.75469 6.01406 2.64375 3.89062 2.64375C1.22813 2.64375 0 4.0875 0 6.28125C0 8.27344 1.18594 9.75 3.86719 9.75C5.33906 9.75 7.05469 9.20156 7.35469 7.58906H5.80313C5.24063 9.26719 1.69219 9.30938 1.52813 6.57656ZM5.98125 5.57344H1.55625C1.87969 2.92031 5.87344 3.00937 5.98125 5.57344Z" fill="#1F2937"/>
</svg>
