<svg width="19" height="22" viewBox="0 0 19 22" fill="none" xmlns="http://www.w3.org/2000/svg">
<path d="M15.1266 11.5953C15.1172 9.875 15.8953 8.57656 17.4703 7.62031C16.5891 6.35938 15.2578 5.66563 13.5 5.52969C11.8359 5.39844 10.0172 6.5 9.35156 6.5C8.64844 6.5 7.03594 5.57656 5.77031 5.57656C3.15469 5.61875 0.375 7.6625 0.375 11.8203C0.375 13.0484 0.6 14.3172 1.05 15.6266C1.65 17.3469 3.81562 21.5656 6.075 21.4953C7.25625 21.4672 8.09062 20.6563 9.62812 20.6563C11.1187 20.6563 11.8922 21.4953 13.2094 21.4953C15.4875 21.4625 17.4469 17.6281 18.0187 15.9031C14.9625 14.4641 15.1266 11.6844 15.1266 11.5953ZM12.4734 3.89844C13.7531 2.37969 13.6359 0.996875 13.5984 0.5C12.4688 0.565625 11.1609 1.26875 10.4156 2.13594C9.59531 3.06406 9.1125 4.2125 9.21563 5.50625C10.4391 5.6 11.5547 4.97188 12.4734 3.89844Z" fill="white"/>
</svg>
