<svg width="13" height="14" viewBox="0 0 13 14" fill="none" xmlns="http://www.w3.org/2000/svg">
<path d="M7.20312 0C3.34375 0 0.21875 3.13438 0.21875 7C0.21875 10.8656 3.34375 14 7.20312 14C9.09688 14 10.8125 13.2438 12.0719 12.0188C12.2281 11.8656 12.2688 11.6281 12.1687 11.4344C12.0687 11.2406 11.8531 11.1312 11.6375 11.1687C11.3313 11.2219 11.0187 11.25 10.6969 11.25C7.66875 11.25 5.2125 8.7875 5.2125 5.75C5.2125 3.69375 6.3375 1.90313 8.00313 0.959375C8.19375 0.85 8.29062 0.63125 8.24375 0.41875C8.19687 0.20625 8.01562 0.046875 7.79688 0.028125C7.6 0.0125 7.40312 0.00312495 7.20312 0.00312495V0Z" fill="white"/>
</svg>
