<svg width="31" height="18" viewBox="0 0 31 18" fill="none" xmlns="http://www.w3.org/2000/svg">
<path d="M9.1875 0C4.21875 0 0.1875 4.03125 0.1875 9C0.1875 13.9688 4.21875 18 9.1875 18H21.1875C26.1562 18 30.1875 13.9688 30.1875 9C30.1875 4.03125 26.1562 0 21.1875 0H9.1875ZM23.4375 4.875C23.9348 4.875 24.4117 5.07254 24.7633 5.42417C25.115 5.77581 25.3125 6.25272 25.3125 6.75C25.3125 7.24728 25.115 7.72419 24.7633 8.07582C24.4117 8.42746 23.9348 8.625 23.4375 8.625C22.9402 8.625 22.4633 8.42746 22.1117 8.07582C21.76 7.72419 21.5625 7.24728 21.5625 6.75C21.5625 6.25272 21.76 5.77581 22.1117 5.42417C22.4633 5.07254 22.9402 4.875 23.4375 4.875ZM18.5625 11.25C18.5625 10.7527 18.76 10.2758 19.1117 9.92418C19.4633 9.57254 19.9402 9.375 20.4375 9.375C20.9348 9.375 21.4117 9.57254 21.7633 9.92418C22.115 10.2758 22.3125 10.7527 22.3125 11.25C22.3125 11.7473 22.115 12.2242 21.7633 12.5758C21.4117 12.9275 20.9348 13.125 20.4375 13.125C19.9402 13.125 19.4633 12.9275 19.1117 12.5758C18.76 12.2242 18.5625 11.7473 18.5625 11.25ZM8.0625 6.375C8.0625 5.75156 8.56406 5.25 9.1875 5.25C9.81094 5.25 10.3125 5.75156 10.3125 6.375V7.875H11.8125C12.4359 7.875 12.9375 8.37656 12.9375 9C12.9375 9.62344 12.4359 10.125 11.8125 10.125H10.3125V11.625C10.3125 12.2484 9.81094 12.75 9.1875 12.75C8.56406 12.75 8.0625 12.2484 8.0625 11.625V10.125H6.5625C5.93906 10.125 5.4375 9.62344 5.4375 9C5.4375 8.37656 5.93906 7.875 6.5625 7.875H8.0625V6.375Z" fill="white"/>
</svg>
