<svg width="27" height="21" viewBox="0 0 27 21" fill="none" xmlns="http://www.w3.org/2000/svg">
<path d="M26.7623 15.9516C26.2326 16.6172 24.9436 17.0906 24.9436 17.0906L15.3295 20.5406V17.9953L22.4029 15.4734C23.2045 15.1875 23.3311 14.7797 22.6748 14.5641C22.0232 14.3484 20.842 14.4094 20.0404 14.7L15.3295 16.3641V13.7203C16.417 13.3547 17.5373 13.0828 18.8779 12.9328C20.7951 12.7219 23.1389 12.9609 24.9811 13.6594C27.0529 14.3156 27.2873 15.2859 26.7623 15.9516ZM16.2436 11.6156V5.1C16.2436 4.33594 16.1029 3.63281 15.3857 3.43125C14.8373 3.25312 14.4951 3.76406 14.4951 4.52813V20.8359L10.0982 19.4391V0C11.9686 0.346875 14.692 1.16719 16.1545 1.65938C19.8811 2.93906 21.142 4.53281 21.142 8.11875C21.142 11.6109 18.9857 12.9375 16.2436 11.6156ZM2.02637 17.7281C-0.101755 17.1281 -0.458006 15.8766 0.512307 15.1594C1.40762 14.4937 2.93574 13.9922 2.93574 13.9922L9.24043 11.7516V14.3063L4.70293 15.9281C3.90137 16.2141 3.77949 16.6219 4.43106 16.8375C5.08262 17.0531 6.26387 16.9922 7.06543 16.7016L9.24043 15.9094V18.1969C6.82168 18.6328 4.48731 18.5391 2.02637 17.7281Z" fill="#1F2937"/>
</svg>
