<svg width="28" height="22" viewBox="0 0 28 22" fill="none" xmlns="http://www.w3.org/2000/svg">
<path d="M26.9485 16.4516C26.4188 17.1172 25.1297 17.5906 25.1297 17.5906L15.5157 21.0406V18.4953L22.5891 15.9734C23.3907 15.6875 23.5172 15.2797 22.861 15.0641C22.2094 14.8484 21.0282 14.9094 20.2266 15.2L15.5157 16.8641V14.2203C16.6032 13.8547 17.7235 13.5828 19.0641 13.4328C20.9813 13.2219 23.325 13.4609 25.1672 14.1594C27.2391 14.8156 27.4735 15.7859 26.9485 16.4516ZM16.4297 12.1156V5.6C16.4297 4.83594 16.2891 4.13281 15.5719 3.93125C15.0235 3.75312 14.6813 4.26406 14.6813 5.02813V21.3359L10.2844 19.9391V0.5C12.1547 0.846875 14.8782 1.66719 16.3407 2.15938C20.0672 3.43906 21.3282 5.03281 21.3282 8.61875C21.3282 12.1109 19.1719 13.4375 16.4297 12.1156ZM2.21253 18.2281C0.0844017 17.6281 -0.271848 16.3766 0.698464 15.6594C1.59378 14.9937 3.1219 14.4922 3.1219 14.4922L9.42659 12.2516V14.8063L4.88909 16.4281C4.08753 16.7141 3.96565 17.1219 4.61721 17.3375C5.26878 17.5531 6.45003 17.4922 7.25159 17.2016L9.42659 16.4094V18.6969C7.00784 19.1328 4.67346 19.0391 2.21253 18.2281Z" fill="white"/>
</svg>
