<svg width="24" height="24" viewBox="0 0 24 24" fill="none" xmlns="http://www.w3.org/2000/svg">
<path d="M7.3436 18.041L5.89516 16.5926C5.49672 16.1942 5.3561 15.6176 5.53423 15.0832C5.67485 14.666 5.86235 14.1223 6.08735 13.4989H1.12798C0.72485 13.4989 0.34985 13.2832 0.148288 12.9317C-0.0532749 12.5801 -0.0485874 12.1489 0.157663 11.802L2.6186 7.65354C3.22798 6.62698 4.32954 5.99885 5.52016 5.99885H9.37798C9.49048 5.81135 9.60298 5.63792 9.71548 5.46917C13.5545 -0.193333 19.2733 -0.380832 22.6858 0.247293C23.2295 0.34573 23.6514 0.772293 23.7545 1.31604C24.3827 4.73323 24.1905 10.4473 18.5327 14.2864C18.3686 14.3989 18.1905 14.5114 18.003 14.6239V18.4817C18.003 19.6723 17.3749 20.7785 16.3483 21.3832L12.1999 23.8442C11.853 24.0504 11.4217 24.0551 11.0702 23.8535C10.7186 23.652 10.503 23.2817 10.503 22.8739V17.8489C9.84204 18.0785 9.26548 18.266 8.82954 18.4067C8.30454 18.5754 7.73266 18.4301 7.33891 18.041H7.3436ZM18.003 7.87385C18.5003 7.87385 18.9772 7.67631 19.3288 7.32468C19.6804 6.97305 19.878 6.49614 19.878 5.99885C19.878 5.50157 19.6804 5.02466 19.3288 4.67303C18.9772 4.3214 18.5003 4.12385 18.003 4.12385C17.5057 4.12385 17.0288 4.3214 16.6772 4.67303C16.3255 5.02466 16.128 5.50157 16.128 5.99885C16.128 6.49614 16.3255 6.97305 16.6772 7.32468C17.0288 7.67631 17.5057 7.87385 18.003 7.87385Z" fill="#1F2937"/>
</svg>
