<svg width="24" height="24" viewBox="0 0 24 24" fill="none" xmlns="http://www.w3.org/2000/svg">
<path d="M7.34067 18.042L5.89223 16.5936C5.4938 16.1951 5.35317 15.6186 5.5313 15.0842C5.67192 14.667 5.85942 14.1233 6.08442 13.4998H1.12505C0.72192 13.4998 0.34692 13.2842 0.145358 12.9326C-0.0562045 12.5811 -0.051517 12.1498 0.154733 11.803L2.61567 7.65452C3.22505 6.62796 4.32661 5.99983 5.51723 5.99983H9.37505C9.48755 5.81233 9.60005 5.63889 9.71255 5.47014C13.5516 -0.192356 19.2704 -0.379856 22.6829 0.248269C23.2266 0.346707 23.6485 0.773269 23.7516 1.31702C24.3797 4.73421 24.1875 10.4483 18.5297 14.2873C18.3657 14.3998 18.1875 14.5123 18 14.6248V18.4826C18 19.6733 17.3719 20.7795 16.3454 21.3842L12.1969 23.8451C11.85 24.0514 11.4188 24.0561 11.0672 23.8545C10.7157 23.653 10.5 23.2826 10.5 22.8748V17.8498C9.83911 18.0795 9.26255 18.267 8.82661 18.4076C8.30161 18.5764 7.72973 18.4311 7.33598 18.042H7.34067ZM18 7.87483C18.4973 7.87483 18.9742 7.67729 19.3259 7.32566C19.6775 6.97403 19.875 6.49711 19.875 5.99983C19.875 5.50255 19.6775 5.02564 19.3259 4.67401C18.9742 4.32238 18.4973 4.12483 18 4.12483C17.5028 4.12483 17.0259 4.32238 16.6742 4.67401C16.3226 5.02564 16.125 5.50255 16.125 5.99983C16.125 6.49711 16.3226 6.97403 16.6742 7.32566C17.0259 7.67729 17.5028 7.87483 18 7.87483Z" fill="#6366F1"/>
</svg>
