<svg width="30" height="18" viewBox="0 0 30 18" fill="none" xmlns="http://www.w3.org/2000/svg">
<path d="M9 0C4.03125 0 0 4.03125 0 9C0 13.9688 4.03125 18 9 18H21C25.9688 18 30 13.9688 30 9C30 4.03125 25.9688 0 21 0H9ZM23.25 4.875C23.7473 4.875 24.2242 5.07254 24.5758 5.42417C24.9275 5.77581 25.125 6.25272 25.125 6.75C25.125 7.24728 24.9275 7.72419 24.5758 8.07583C24.2242 8.42746 23.7473 8.625 23.25 8.625C22.7527 8.625 22.2758 8.42746 21.9242 8.07583C21.5725 7.72419 21.375 7.24728 21.375 6.75C21.375 6.25272 21.5725 5.77581 21.9242 5.42417C22.2758 5.07254 22.7527 4.875 23.25 4.875ZM18.375 11.25C18.375 10.7527 18.5725 10.2758 18.9242 9.92417C19.2758 9.57254 19.7527 9.375 20.25 9.375C20.7473 9.375 21.2242 9.57254 21.5758 9.92417C21.9275 10.2758 22.125 10.7527 22.125 11.25C22.125 11.7473 21.9275 12.2242 21.5758 12.5758C21.2242 12.9275 20.7473 13.125 20.25 13.125C19.7527 13.125 19.2758 12.9275 18.9242 12.5758C18.5725 12.2242 18.375 11.7473 18.375 11.25ZM7.875 6.375C7.875 5.75156 8.37656 5.25 9 5.25C9.62344 5.25 10.125 5.75156 10.125 6.375V7.875H11.625C12.2484 7.875 12.75 8.37656 12.75 9C12.75 9.62344 12.2484 10.125 11.625 10.125H10.125V11.625C10.125 12.2484 9.62344 12.75 9 12.75C8.37656 12.75 7.875 12.2484 7.875 11.625V10.125H6.375C5.75156 10.125 5.25 9.62344 5.25 9C5.25 8.37656 5.75156 7.875 6.375 7.875H7.875V6.375Z" fill="#1F2937"/>
</svg>
