<svg width="29" height="30" viewBox="0 0 29 30" fill="none" xmlns="http://www.w3.org/2000/svg">
<path d="M14.6563 0C14.9258 0 15.1953 0.0585938 15.4414 0.169922L26.4746 4.85156C27.7637 5.39648 28.7246 6.66797 28.7188 8.20312C28.6895 14.0156 26.2989 24.6504 16.2032 29.4844C15.2246 29.9531 14.0879 29.9531 13.1094 29.4844C3.0137 24.6504 0.623074 14.0156 0.593777 8.20312C0.587917 6.66797 1.54885 5.39648 2.83792 4.85156L13.877 0.169922C14.1172 0.0585938 14.3867 0 14.6563 0ZM14.6563 3.91406V26.0625C22.7422 22.1484 24.916 13.4824 24.9688 8.28516L14.6563 3.91406Z" fill="#3B82F6"/>
</svg>
