<svg width="24" height="24" viewBox="0 0 24 24" fill="none" xmlns="http://www.w3.org/2000/svg">
<path d="M11.625 0C5.20781 0 0 5.20781 0 11.625C0 18.0422 5.20781 23.25 11.625 23.25C18.0422 23.25 23.25 18.0422 23.25 11.625C23.25 5.20781 18.0422 0 11.625 0ZM16.3453 17.1047C16.1484 17.1047 16.0266 17.0437 15.8438 16.9359C12.9187 15.1734 9.51562 15.0984 6.15469 15.7875C5.97188 15.8344 5.73281 15.9094 5.59688 15.9094C5.14219 15.9094 4.85625 15.5484 4.85625 15.1688C4.85625 14.6859 5.14219 14.4562 5.49375 14.3812C9.33281 13.5328 13.2563 13.6078 16.6031 15.6094C16.8891 15.7922 17.0578 15.9562 17.0578 16.3828C17.0578 16.8094 16.725 17.1047 16.3453 17.1047ZM17.6063 14.0297C17.3625 14.0297 17.1984 13.9219 17.0297 13.8328C14.1 12.0984 9.73125 11.4 5.84531 12.4547C5.62031 12.5156 5.49844 12.5766 5.2875 12.5766C4.78594 12.5766 4.37813 12.1687 4.37813 11.6672C4.37813 11.1656 4.62188 10.8328 5.10469 10.6969C6.40781 10.3312 7.73906 10.0594 9.68906 10.0594C12.7312 10.0594 15.6703 10.8141 17.9859 12.1922C18.3656 12.4172 18.5156 12.7078 18.5156 13.1156C18.5109 13.6219 18.1172 14.0297 17.6063 14.0297ZM19.0594 10.4578C18.8156 10.4578 18.6656 10.3969 18.4547 10.275C15.1172 8.28281 9.15 7.80469 5.2875 8.88281C5.11875 8.92969 4.90781 9.00469 4.68281 9.00469C4.06406 9.00469 3.59062 8.52188 3.59062 7.89844C3.59062 7.26094 3.98438 6.9 4.40625 6.77813C6.05625 6.29531 7.90312 6.06562 9.91406 6.06562C13.3359 6.06562 16.9219 6.77812 19.5422 8.30625C19.9078 8.51719 20.1469 8.80781 20.1469 9.36563C20.1469 10.0031 19.6313 10.4578 19.0594 10.4578Z" fill="#1F2937"/>
</svg>
