<svg width="25" height="24" viewBox="0 0 25 24" fill="none" xmlns="http://www.w3.org/2000/svg">
<path d="M12.4219 0.375C6.00469 0.375 0.796875 5.58281 0.796875 12C0.796875 18.4172 6.00469 23.625 12.4219 23.625C18.8391 23.625 24.0469 18.4172 24.0469 12C24.0469 5.58281 18.8391 0.375 12.4219 0.375ZM17.1422 17.4797C16.9453 17.4797 16.8234 17.4187 16.6406 17.3109C13.7156 15.5484 10.3125 15.4734 6.95156 16.1625C6.76875 16.2094 6.52969 16.2844 6.39375 16.2844C5.93906 16.2844 5.65312 15.9234 5.65312 15.5438C5.65312 15.0609 5.93906 14.8312 6.29062 14.7562C10.1297 13.9078 14.0531 13.9828 17.4 15.9844C17.6859 16.1672 17.8547 16.3313 17.8547 16.7578C17.8547 17.1844 17.5219 17.4797 17.1422 17.4797ZM18.4031 14.4047C18.1594 14.4047 17.9953 14.2969 17.8266 14.2078C14.8969 12.4734 10.5281 11.775 6.64219 12.8297C6.41719 12.8906 6.29531 12.9516 6.08438 12.9516C5.58281 12.9516 5.175 12.5437 5.175 12.0422C5.175 11.5406 5.41875 11.2078 5.90156 11.0719C7.20469 10.7063 8.53594 10.4344 10.4859 10.4344C13.5281 10.4344 16.4672 11.1891 18.7828 12.5672C19.1625 12.7922 19.3125 13.0828 19.3125 13.4906C19.3078 13.9969 18.9141 14.4047 18.4031 14.4047ZM19.8563 10.8328C19.6125 10.8328 19.4625 10.7719 19.2516 10.65C15.9141 8.65781 9.94688 8.17969 6.08438 9.25781C5.91563 9.30469 5.70469 9.37969 5.47969 9.37969C4.86094 9.37969 4.3875 8.89688 4.3875 8.27344C4.3875 7.63594 4.78125 7.275 5.20312 7.15313C6.85313 6.67031 8.7 6.44062 10.7109 6.44062C14.1328 6.44062 17.7188 7.15312 20.3391 8.68125C20.7047 8.89219 20.9437 9.18281 20.9437 9.74063C20.9437 10.3781 20.4281 10.8328 19.8563 10.8328Z" fill="white"/>
</svg>
