<svg width="25" height="24" viewBox="0 0 25 24" fill="none" xmlns="http://www.w3.org/2000/svg">
<path d="M24.0469 12C24.0469 18.4219 18.8344 23.625 12.4031 23.625C7.06875 23.625 2.57812 20.0484 1.2 15.1688L5.6625 17.0109C5.9625 18.5156 7.29844 19.6547 8.89219 19.6547C10.7297 19.6547 12.2625 18.1359 12.1828 16.2094L16.1437 13.3875C18.5859 13.4484 20.6344 11.4703 20.6344 9.00469C20.6344 6.58594 18.6656 4.62187 16.2422 4.62187C13.8188 4.62187 11.85 6.59063 11.85 9.00469V9.06094L9.075 13.0781C8.34844 13.0359 7.63594 13.2375 7.03594 13.6453L0.796875 11.0672C1.275 5.08125 6.28594 0.375 12.4031 0.375C18.8344 0.375 24.0469 5.57812 24.0469 12ZM8.09531 18.0141L6.66562 17.4234C6.92835 17.969 7.38197 18.3993 7.94062 18.6328C9.20156 19.1578 10.65 18.5578 11.175 17.3016C11.4281 16.6922 11.4328 16.0219 11.1797 15.4125C10.9266 14.8031 10.4531 14.325 9.84375 14.0719C9.23906 13.8188 8.59219 13.8281 8.02031 14.0438L9.49688 14.6531C10.425 15.0375 10.8656 16.1016 10.4766 17.0297C10.0875 17.9625 9.02344 18.3984 8.09531 18.0141ZM16.2422 11.925C14.6297 11.925 13.3172 10.6125 13.3172 9.00469C13.3172 7.39688 14.6297 6.08438 16.2422 6.08438C17.8547 6.08438 19.1672 7.39688 19.1672 9.00469C19.1672 10.6125 17.8594 11.925 16.2422 11.925ZM16.2469 11.1938C17.4609 11.1938 18.4453 10.2094 18.4453 9C18.4453 7.78594 17.4609 6.80625 16.2469 6.80625C15.0328 6.80625 14.0484 7.79063 14.0484 9C14.0531 10.2094 15.0375 11.1938 16.2469 11.1938Z" fill="white"/>
</svg>
