<svg width="24" height="24" viewBox="0 0 24 24" fill="none" xmlns="http://www.w3.org/2000/svg">
<path d="M23.25 11.625C23.25 18.0469 18.0375 23.25 11.6063 23.25C6.27188 23.25 1.78125 19.6734 0.403125 14.7938L4.86563 16.6359C5.16563 18.1406 6.50156 19.2797 8.09531 19.2797C9.93281 19.2797 11.4656 17.7609 11.3859 15.8344L15.3469 13.0125C17.7891 13.0734 19.8375 11.0953 19.8375 8.62969C19.8375 6.21094 17.8688 4.24687 15.4453 4.24687C13.0219 4.24687 11.0531 6.21563 11.0531 8.62969V8.68594L8.27813 12.7031C7.55156 12.6609 6.83906 12.8625 6.23906 13.2703L0 10.6922C0.478125 4.70625 5.48906 0 11.6063 0C18.0375 0 23.25 5.20312 23.25 11.625ZM7.29844 17.6391L5.86875 17.0484C6.13147 17.594 6.5851 18.0243 7.14375 18.2578C8.40469 18.7828 9.85312 18.1828 10.3781 16.9266C10.6312 16.3172 10.6359 15.6469 10.3828 15.0375C10.1297 14.4281 9.65625 13.95 9.04688 13.6969C8.44219 13.4438 7.79531 13.4531 7.22344 13.6688L8.7 14.2781C9.62813 14.6625 10.0688 15.7266 9.67969 16.6547C9.29062 17.5875 8.22656 18.0234 7.29844 17.6391ZM15.4453 11.55C13.8328 11.55 12.5203 10.2375 12.5203 8.62969C12.5203 7.02188 13.8328 5.70938 15.4453 5.70938C17.0578 5.70938 18.3703 7.02188 18.3703 8.62969C18.3703 10.2375 17.0625 11.55 15.4453 11.55ZM15.45 10.8188C16.6641 10.8188 17.6484 9.83437 17.6484 8.625C17.6484 7.41094 16.6641 6.43125 15.45 6.43125C14.2359 6.43125 13.2516 7.41563 13.2516 8.625C13.2563 9.83437 14.2406 10.8188 15.45 10.8188Z" fill="#1F2937"/>
</svg>
