<svg width="17" height="16" viewBox="0 0 17 16" fill="none" xmlns="http://www.w3.org/2000/svg">
<path d="M11.5156 0.0375C11.6719 0.103125 11.7844 0.24375 11.8156 0.409375L12.4375 3.78125L15.8094 4.4C15.975 4.43125 16.1156 4.54375 16.1812 4.7C16.2469 4.85625 16.2281 5.03437 16.1312 5.175L14.1844 8L16.1312 10.8219C16.2281 10.9625 16.2469 11.1406 16.1812 11.2969C16.1156 11.4531 15.975 11.5656 15.8094 11.5969L12.4375 12.2187L11.8156 15.5906C11.7844 15.7562 11.6719 15.8969 11.5156 15.9625C11.3594 16.0281 11.1812 16.0094 11.0406 15.9125L8.21875 13.9656L5.39687 15.9125C5.25625 16.0094 5.07812 16.0281 4.92187 15.9625C4.76562 15.8969 4.65312 15.7562 4.62187 15.5906L4 12.2187L0.628122 11.5969C0.462497 11.5656 0.321872 11.4531 0.256247 11.2969C0.190622 11.1406 0.209372 10.9625 0.306247 10.8219L2.25312 8L0.306247 5.17812C0.209372 5.0375 0.190622 4.85937 0.256247 4.70312C0.321872 4.54687 0.462497 4.43437 0.628122 4.40312L4 3.78125L4.62187 0.409375C4.65312 0.24375 4.76562 0.103125 4.92187 0.0375C5.07812 -0.028125 5.25625 -0.00937504 5.39687 0.0875L8.21875 2.03437L11.0406 0.0875C11.1812 -0.00937504 11.3594 -0.028125 11.5156 0.0375ZM5.21875 8C5.21875 7.20435 5.53482 6.44129 6.09743 5.87868C6.66004 5.31607 7.4231 5 8.21875 5C9.0144 5 9.77746 5.31607 10.3401 5.87868C10.9027 6.44129 11.2187 7.20435 11.2187 8C11.2187 8.79565 10.9027 9.55871 10.3401 10.1213C9.77746 10.6839 9.0144 11 8.21875 11C7.4231 11 6.66004 10.6839 6.09743 10.1213C5.53482 9.55871 5.21875 8.79565 5.21875 8ZM12.2187 8C12.2187 6.93913 11.7973 5.92172 11.0472 5.17157C10.297 4.42143 9.27961 4 8.21875 4C7.15788 4 6.14047 4.42143 5.39032 5.17157C4.64017 5.92172 4.21875 6.93913 4.21875 8C4.21875 9.06087 4.64017 10.0783 5.39032 10.8284C6.14047 11.5786 7.15788 12 8.21875 12C9.27961 12 10.297 11.5786 11.0472 10.8284C11.7973 10.0783 12.2187 9.06087 12.2187 8Z" fill="#2563EB"/>
</svg>
