<svg width="18" height="22" viewBox="0 0 18 22" fill="none" xmlns="http://www.w3.org/2000/svg">
<path d="M10.0594 0.939465C9.47346 0.353528 8.5219 0.353528 7.93596 0.939465L0.435961 8.43947C-0.149977 9.0254 -0.149977 9.97697 0.435961 10.5629C1.0219 11.1488 1.97346 11.1488 2.5594 10.5629L7.50002 5.61759L7.50002 19.9988C7.50002 20.8285 8.17034 21.4988 9.00002 21.4988C9.82971 21.4988 10.5 20.8285 10.5 19.9988L10.5 5.62228L15.4406 10.5582C16.0266 11.1442 16.9781 11.1442 17.5641 10.5582C18.15 9.97228 18.15 9.02071 17.5641 8.43478L10.0641 0.934777L10.0594 0.939465Z" fill="#1F2937"/>
</svg>
