<svg width="28" height="22" viewBox="0 0 28 22" fill="none" xmlns="http://www.w3.org/2000/svg">
<path d="M24.5938 2.75C25.0063 2.75 25.3438 3.0875 25.3438 3.5V5H2.84375V3.5C2.84375 3.0875 3.18125 2.75 3.59375 2.75H24.5938ZM25.3438 9.5V18.5C25.3438 18.9125 25.0063 19.25 24.5938 19.25H3.59375C3.18125 19.25 2.84375 18.9125 2.84375 18.5V9.5H25.3438ZM3.59375 0.5C1.93906 0.5 0.59375 1.84531 0.59375 3.5V18.5C0.59375 20.1547 1.93906 21.5 3.59375 21.5H24.5938C26.2484 21.5 27.5938 20.1547 27.5938 18.5V3.5C27.5938 1.84531 26.2484 0.5 24.5938 0.5H3.59375ZM6.21875 14.75C5.59531 14.75 5.09375 15.2516 5.09375 15.875C5.09375 16.4984 5.59531 17 6.21875 17H8.46875C9.09219 17 9.59375 16.4984 9.59375 15.875C9.59375 15.2516 9.09219 14.75 8.46875 14.75H6.21875ZM12.2188 14.75C11.5953 14.75 11.0938 15.2516 11.0938 15.875C11.0938 16.4984 11.5953 17 12.2188 17H17.4688C18.0922 17 18.5938 16.4984 18.5938 15.875C18.5938 15.2516 18.0922 14.75 17.4688 14.75H12.2188Z" fill="white"/>
</svg>
