<svg width="28" height="22" viewBox="0 0 28 22" fill="none" xmlns="http://www.w3.org/2000/svg">
<path d="M22.4266 9.84219C22.4266 9.84219 22.7828 11.5859 22.8625 11.9516H21.2969C21.4516 11.5344 22.0469 9.9125 22.0469 9.9125C22.0375 9.92656 22.2016 9.48594 22.2953 9.21406L22.4266 9.84219ZM27.3906 2.75V19.25C27.3906 20.4922 26.3828 21.5 25.1406 21.5H2.64062C1.39844 21.5 0.390625 20.4922 0.390625 19.25V2.75C0.390625 1.50781 1.39844 0.5 2.64062 0.5H25.1406C26.3828 0.5 27.3906 1.50781 27.3906 2.75ZM7.53906 14.525L10.5016 7.25H8.50937L6.66719 12.2188L6.46563 11.2109L5.80937 7.86406C5.70156 7.4 5.36875 7.26875 4.95625 7.25H1.92344L1.89062 7.39531C2.63125 7.58281 3.29219 7.85469 3.86875 8.19687L5.54688 14.525H7.53906ZM11.9641 14.5344L13.1453 7.25H11.2609L10.0844 14.5344H11.9641ZM18.5219 12.1531C18.5312 11.3234 18.025 10.6906 16.9422 10.1703C16.2812 9.8375 15.8781 9.6125 15.8781 9.27031C15.8875 8.96094 16.2203 8.64219 16.9609 8.64219C17.575 8.62813 18.025 8.77344 18.3625 8.91875L18.5312 8.99844L18.7891 7.42344C18.4188 7.27812 17.8281 7.11406 17.1016 7.11406C15.2406 7.11406 13.9328 8.10781 13.9234 9.52344C13.9094 10.5688 14.8609 11.15 15.5734 11.5016C16.3 11.8578 16.5484 12.0922 16.5484 12.4062C16.5391 12.8938 15.9578 13.1188 15.4188 13.1188C14.6688 13.1188 14.2656 13.0016 13.6516 12.7297L13.4031 12.6125L13.1406 14.2484C13.5813 14.45 14.3969 14.6281 15.2406 14.6375C17.2188 14.6422 18.5078 13.6625 18.5219 12.1531ZM25.1406 14.5344L23.6219 7.25H22.1641C21.7141 7.25 21.3719 7.38125 21.1797 7.85469L18.3812 14.5344H20.3594C20.3594 14.5344 20.6828 13.6344 20.7531 13.4422H23.1719C23.2281 13.7 23.3969 14.5344 23.3969 14.5344H25.1406Z" fill="white"/>
</svg>
