<svg width="18" height="14" viewBox="0 0 18 14" fill="none" xmlns="http://www.w3.org/2000/svg">
<path d="M14.6906 6.22813C14.6906 6.22813 14.9281 7.39062 14.9812 7.63437H13.9375C14.0406 7.35625 14.4375 6.275 14.4375 6.275C14.4312 6.28438 14.5406 5.99062 14.6031 5.80937L14.6906 6.22813ZM18 1.5V12.5C18 13.3281 17.3281 14 16.5 14H1.5C0.671875 14 0 13.3281 0 12.5V1.5C0 0.671875 0.671875 0 1.5 0H16.5C17.3281 0 18 0.671875 18 1.5ZM4.76562 9.35L6.74062 4.5H5.4125L4.18437 7.8125L4.05 7.14062L3.6125 4.90938C3.54062 4.6 3.31875 4.5125 3.04375 4.5H1.02188L1 4.59688C1.49375 4.72188 1.93437 4.90312 2.31875 5.13125L3.4375 9.35H4.76562ZM7.71562 9.35625L8.50313 4.5H7.24687L6.4625 9.35625H7.71562ZM12.0875 7.76875C12.0938 7.21563 11.7563 6.79375 11.0344 6.44688C10.5938 6.225 10.325 6.075 10.325 5.84688C10.3313 5.64062 10.5531 5.42812 11.0469 5.42812C11.4563 5.41875 11.7562 5.51562 11.9812 5.6125L12.0938 5.66563L12.2656 4.61562C12.0188 4.51875 11.625 4.40938 11.1406 4.40938C9.9 4.40938 9.02813 5.07188 9.02188 6.01562C9.0125 6.7125 9.64687 7.1 10.1219 7.33438C10.6062 7.57188 10.7719 7.72813 10.7719 7.9375C10.7656 8.2625 10.3781 8.4125 10.0188 8.4125C9.51875 8.4125 9.25 8.33437 8.84062 8.15312L8.675 8.075L8.5 9.16562C8.79375 9.3 9.3375 9.41875 9.9 9.425C11.2188 9.42813 12.0781 8.775 12.0875 7.76875ZM16.5 9.35625L15.4875 4.5H14.5156C14.2156 4.5 13.9875 4.5875 13.8594 4.90312L11.9937 9.35625H13.3125C13.3125 9.35625 13.5281 8.75625 13.575 8.62813H15.1875C15.225 8.8 15.3375 9.35625 15.3375 9.35625H16.5Z" fill="white"/>
</svg>
