<svg width="19" height="14" viewBox="0 0 19 14" fill="none" xmlns="http://www.w3.org/2000/svg">
<path d="M16.7969 1.5C17.0719 1.5 17.2969 1.725 17.2969 2V3H2.29688V2C2.29688 1.725 2.52188 1.5 2.79688 1.5H16.7969ZM17.2969 6V12C17.2969 12.275 17.0719 12.5 16.7969 12.5H2.79688C2.52188 12.5 2.29688 12.275 2.29688 12V6H17.2969ZM2.79688 0C1.69375 0 0.796875 0.896875 0.796875 2V12C0.796875 13.1031 1.69375 14 2.79688 14H16.7969C17.9 14 18.7969 13.1031 18.7969 12V2C18.7969 0.896875 17.9 0 16.7969 0H2.79688ZM4.54688 9.5C4.13125 9.5 3.79688 9.83438 3.79688 10.25C3.79688 10.6656 4.13125 11 4.54688 11H6.04688C6.4625 11 6.79688 10.6656 6.79688 10.25C6.79688 9.83438 6.4625 9.5 6.04688 9.5H4.54688ZM8.54688 9.5C8.13125 9.5 7.79688 9.83438 7.79688 10.25C7.79688 10.6656 8.13125 11 8.54688 11H12.0469C12.4625 11 12.7969 10.6656 12.7969 10.25C12.7969 9.83438 12.4625 9.5 12.0469 9.5H8.54688Z" fill="#9CA3AF"/>
</svg>
