<svg width="27" height="21" viewBox="0 0 27 21" fill="none" xmlns="http://www.w3.org/2000/svg">
<path d="M24 2.25C24.4125 2.25 24.75 2.5875 24.75 3V4.5H2.25V3C2.25 2.5875 2.5875 2.25 3 2.25H24ZM24.75 9V18C24.75 18.4125 24.4125 18.75 24 18.75H3C2.5875 18.75 2.25 18.4125 2.25 18V9H24.75ZM3 0C1.34531 0 0 1.34531 0 3V18C0 19.6547 1.34531 21 3 21H24C25.6547 21 27 19.6547 27 18V3C27 1.34531 25.6547 0 24 0H3ZM5.625 14.25C5.00156 14.25 4.5 14.7516 4.5 15.375C4.5 15.9984 5.00156 16.5 5.625 16.5H7.875C8.49844 16.5 9 15.9984 9 15.375C9 14.7516 8.49844 14.25 7.875 14.25H5.625ZM11.625 14.25C11.0016 14.25 10.5 14.7516 10.5 15.375C10.5 15.9984 11.0016 16.5 11.625 16.5H16.875C17.4984 16.5 18 15.9984 18 15.375C18 14.7516 17.4984 14.25 16.875 14.25H11.625Z" fill="#1F2937"/>
</svg>
