<svg width="27" height="22" viewBox="0 0 27 22" fill="none" xmlns="http://www.w3.org/2000/svg">
<path d="M22.0359 9.84219C22.0359 9.84219 22.3922 11.5859 22.4719 11.9516H20.9062C21.0609 11.5344 21.6562 9.9125 21.6562 9.9125C21.6469 9.92656 21.8109 9.48594 21.9047 9.21406L22.0359 9.84219ZM27 2.75V19.25C27 20.4922 25.9922 21.5 24.75 21.5H2.25C1.00781 21.5 0 20.4922 0 19.25V2.75C0 1.50781 1.00781 0.5 2.25 0.5H24.75C25.9922 0.5 27 1.50781 27 2.75ZM7.14844 14.525L10.1109 7.25H8.11875L6.27656 12.2188L6.075 11.2109L5.41875 7.86406C5.31094 7.4 4.97813 7.26875 4.56563 7.25H1.53281L1.5 7.39531C2.24062 7.58281 2.90156 7.85469 3.47812 8.19687L5.15625 14.525H7.14844ZM11.5734 14.5344L12.7547 7.25H10.8703L9.69375 14.5344H11.5734ZM18.1312 12.1531C18.1406 11.3234 17.6344 10.6906 16.5516 10.1703C15.8906 9.8375 15.4875 9.6125 15.4875 9.27031C15.4969 8.96094 15.8297 8.64219 16.5703 8.64219C17.1844 8.62813 17.6344 8.77344 17.9719 8.91875L18.1406 8.99844L18.3984 7.42344C18.0281 7.27812 17.4375 7.11406 16.7109 7.11406C14.85 7.11406 13.5422 8.10781 13.5328 9.52344C13.5188 10.5688 14.4703 11.15 15.1828 11.5016C15.9094 11.8578 16.1578 12.0922 16.1578 12.4062C16.1484 12.8938 15.5672 13.1188 15.0281 13.1188C14.2781 13.1188 13.875 13.0016 13.2609 12.7297L13.0125 12.6125L12.75 14.2484C13.1906 14.45 14.0062 14.6281 14.85 14.6375C16.8281 14.6422 18.1172 13.6625 18.1312 12.1531ZM24.75 14.5344L23.2313 7.25H21.7734C21.3234 7.25 20.9813 7.38125 20.7891 7.85469L17.9906 14.5344H19.9688C19.9688 14.5344 20.2922 13.6344 20.3625 13.4422H22.7812C22.8375 13.7 23.0062 14.5344 23.0062 14.5344H24.75Z" fill="#9CA3AF"/>
</svg>
