<svg width="25" height="24" viewBox="0 0 25 24" fill="none" xmlns="http://www.w3.org/2000/svg">
<path d="M17.7297 14.9157C19.8062 17.461 20.7625 19.547 20.2797 20.4798C19.9094 21.1876 17.6219 22.5704 15.939 23.1001C14.5515 23.536 12.7328 23.7235 11.2328 23.5782C9.44217 23.4048 7.6281 22.7626 6.07185 21.7501C4.76404 20.897 4.46873 20.5454 4.46873 19.847C4.46873 18.4454 6.01092 15.9891 8.64998 13.186C10.15 11.597 12.2359 9.73134 12.4656 9.7829C12.9062 9.88134 16.4172 13.3032 17.7297 14.9157ZM9.23123 6.74071C7.83904 5.47977 6.50779 4.21415 5.18123 3.76884C4.46873 3.52977 4.41717 3.54384 3.83592 4.14852C2.46717 5.57352 1.3281 7.88446 1.00935 9.88602C0.756228 11.4891 0.723416 11.9391 0.812478 12.722C1.07498 15.0891 1.62342 16.7251 2.71092 18.3891C3.15623 19.0735 3.2781 19.2001 3.14685 18.8532C2.94998 18.3376 3.13279 17.0954 3.59217 15.8532C4.26248 14.0251 6.11873 10.561 9.23123 6.74071ZM23.8375 9.71727C23.0453 5.96727 20.6734 3.60946 20.3406 3.60946C19.9984 3.60946 19.2062 3.91415 18.6531 4.26102C17.5609 4.94071 16.7312 5.7329 15.639 6.73602C17.6265 9.23446 20.4297 13.2704 21.4 16.2188C21.7187 17.1891 21.8547 18.1454 21.7469 18.6704C21.6672 19.0688 21.6672 19.0688 21.8125 18.886C22.0984 18.5251 22.7453 17.4188 23.0031 16.847C23.35 16.0876 23.7062 14.9626 23.875 14.0954C24.0765 13.0407 24.0578 10.7766 23.8375 9.71727ZM7.01404 2.01571C9.24998 1.89852 12.1562 3.6329 12.3719 3.67509C12.4047 3.67977 12.8594 3.47821 13.3844 3.2204C16.3797 1.76259 17.7906 2.01102 18.4187 2.03915C15.4234 0.196962 11.2609 -0.304601 7.45467 1.49071C6.35779 2.01102 6.32967 2.04852 7.01404 2.01571Z" fill="#1F2937"/>
</svg>
