<svg width="24" height="22" viewBox="0 0 24 22" fill="none" xmlns="http://www.w3.org/2000/svg">
<path d="M22.9091 24H19.6364C19.347 24 19.0696 23.8194 18.865 23.4978C18.6604 23.1763 18.5455 22.7402 18.5455 22.2855V5.84336L12.7745 14.9303C12.6731 15.0909 12.5525 15.2185 12.4195 15.3055C12.2866 15.3926 12.144 15.4374 12 15.4374C11.856 15.4374 11.7134 15.3926 11.5805 15.3055C11.4475 15.2185 11.3269 15.0909 11.2255 14.9303L5.45455 5.84336V22.2855C5.45455 22.7402 5.33961 23.1763 5.13503 23.4978C4.93044 23.8194 4.65296 24 4.36364 24H1.09091C0.801582 24 0.524105 23.8194 0.31952 23.4978C0.114935 23.1763 0 22.7402 0 22.2855C0 21.8308 0.114935 21.3947 0.31952 21.0732C0.524105 20.7516 0.801582 20.571 1.09091 20.571H3.27273V1.7114C3.2738 1.37291 3.33861 1.0425 3.45897 0.761799C3.57933 0.481099 3.74987 0.262674 3.94909 0.134051C4.14776 0.00275534 4.36672 -0.0331171 4.57834 0.0309611C4.78997 0.0950393 4.98477 0.256197 5.13818 0.494098L12 11.2955L18.8618 0.494098C19.0152 0.256197 19.21 0.0950393 19.4217 0.0309611C19.6333 -0.0331171 19.8522 0.00275534 20.0509 0.134051C20.2501 0.262674 20.4207 0.481099 20.541 0.761799C20.6614 1.0425 20.7262 1.37291 20.7273 1.7114V20.571H22.9091C23.1984 20.571 23.4759 20.7516 23.6805 21.0732C23.8851 21.3947 24 21.8308 24 22.2855C24 22.7402 23.8851 23.1763 23.6805 23.4978C23.4759 23.8194 23.1984 24 22.9091 24Z" fill="#9CA3AF"/>
</svg>
