<svg width="25" height="11" viewBox="0 0 25 11" fill="none" xmlns="http://www.w3.org/2000/svg">
<path d="M4.56846 1.32031C4.27549 1.66797 3.80674 1.94141 3.33799 1.90234C3.2794 1.43359 3.50987 0.933594 3.7794 0.628906C4.07237 0.273438 4.58409 0.0195312 5.00206 0C5.04893 0.484375 4.85752 0.964844 4.56846 1.32031ZM4.99424 1.99219C4.31456 1.95312 3.73252 2.37891 3.41221 2.37891C3.08409 2.37891 2.5919 2.01172 2.05284 2.02344C1.35362 2.03516 0.705181 2.42969 0.349712 3.05859C-0.384663 4.32031 0.158306 6.18359 0.869244 7.21094C1.2169 7.71875 1.63096 8.27734 2.17784 8.25781C2.69737 8.23828 2.90049 7.92188 3.52549 7.92188C4.1544 7.92188 4.33799 8.25781 4.88487 8.25C5.45127 8.23828 5.80674 7.74219 6.1544 7.23437C6.54893 6.65625 6.71299 6.09766 6.72081 6.06641C6.70909 6.05469 5.62706 5.64063 5.61534 4.39063C5.60362 3.34375 6.47081 2.84766 6.50987 2.81641C6.02159 2.08984 5.25987 2.01172 4.99424 1.99219ZM8.91612 0.578125V8.19141H10.0997V5.58984H11.7364C13.2325 5.58984 14.2794 4.5625 14.2794 3.07813C14.2794 1.59375 13.2481 0.578125 11.7755 0.578125H8.91612ZM10.0997 1.57422H11.463C12.4903 1.57422 13.0763 2.12109 13.0763 3.08203C13.0763 4.04297 12.4903 4.59766 11.4591 4.59766H10.0997V1.57422ZM16.4357 8.25C17.1778 8.25 17.8653 7.875 18.1778 7.27734H18.2013V8.19141H19.295V4.40234C19.295 3.30469 18.4161 2.59375 17.0646 2.59375C15.8106 2.59375 14.881 3.3125 14.8458 4.29688H15.9122C16.0021 3.82812 16.4356 3.51953 17.0294 3.51953C17.7521 3.51953 18.1583 3.85547 18.1583 4.47656V4.89844L16.6817 4.98828C15.3107 5.07031 14.5685 5.63281 14.5685 6.60937C14.5724 7.59375 15.338 8.25 16.4357 8.25ZM16.756 7.34766C16.1271 7.34766 15.7247 7.04297 15.7247 6.58203C15.7247 6.10156 16.1114 5.82422 16.8497 5.78125L18.1622 5.69922V6.12891C18.1622 6.83984 17.5567 7.34766 16.756 7.34766ZM20.7599 10.2617C21.9122 10.2617 22.4552 9.82031 22.9278 8.48828L25.0021 2.66797H23.7989L22.4083 7.16406H22.3849L20.9942 2.66797H19.7599L21.7599 8.21094L21.6505 8.54688C21.4708 9.11719 21.1778 9.33984 20.6544 9.33984C20.5606 9.33984 20.381 9.32812 20.3067 9.32031V10.2344C20.3771 10.25 20.67 10.2617 20.7599 10.2617Z" fill="#4B5563"/>
</svg>
