<svg width="21" height="20" viewBox="0 0 21 20" fill="none" xmlns="http://www.w3.org/2000/svg">
<path d="M10.164 0.101563L1.41403 3.85156C0.867152 4.08594 0.562464 4.67187 0.683558 5.25C0.804652 5.82812 1.31246 6.25 1.90621 6.25V6.5625C1.90621 7.08203 2.32418 7.5 2.84371 7.5H18.4687C18.9882 7.5 19.4062 7.08203 19.4062 6.5625V6.25C20 6.25 20.5117 5.83203 20.6289 5.25C20.7461 4.66797 20.4414 4.08203 19.8984 3.85156L11.1484 0.101563C10.8359 -0.03125 10.4765 -0.03125 10.164 0.101563ZM5.65621 8.75H3.15621V16.418C3.13278 16.4297 3.10934 16.4453 3.0859 16.4609L1.2109 17.7109C0.753871 18.0156 0.546839 18.5859 0.706996 19.1133C0.867152 19.6406 1.35543 20 1.90621 20H19.4062C19.957 20 20.4414 19.6406 20.6015 19.1133C20.7617 18.5859 20.5586 18.0156 20.0976 17.7109L18.2226 16.4609C18.1992 16.4453 18.1757 16.4336 18.1523 16.418V8.75H15.6562V16.25H14.0937V8.75H11.5937V16.25H9.71871V8.75H7.21871V16.25H5.65621V8.75ZM10.6562 2.5C10.9877 2.5 11.3057 2.6317 11.5401 2.86612C11.7745 3.10054 11.9062 3.41848 11.9062 3.75C11.9062 4.08152 11.7745 4.39946 11.5401 4.63388C11.3057 4.8683 10.9877 5 10.6562 5C10.3247 5 10.0068 4.8683 9.77233 4.63388C9.53791 4.39946 9.40621 4.08152 9.40621 3.75C9.40621 3.41848 9.53791 3.10054 9.77233 2.86612C10.0068 2.6317 10.3247 2.5 10.6562 2.5Z" fill="white"/>
</svg>
