<svg width="21" height="20" viewBox="0 0 21 20" fill="none" xmlns="http://www.w3.org/2000/svg">
<path d="M20.3438 10C20.3438 15.3503 16.0065 19.6875 10.6562 19.6875C5.30598 19.6875 0.96875 15.3503 0.96875 10C0.96875 4.64973 5.30598 0.3125 10.6562 0.3125C16.0065 0.3125 20.3438 4.64973 20.3438 10ZM14.8105 8.61992C15.0034 7.3309 14.0218 6.63793 12.6796 6.17566L13.115 4.42949L12.052 4.16461L11.6282 5.86477C11.3487 5.79512 11.0617 5.72945 10.7765 5.66437L11.2034 3.95305L10.141 3.68816L9.70531 5.43371C9.47398 5.38102 9.24691 5.32895 9.02652 5.27418L9.02773 5.26871L7.56172 4.9027L7.27895 6.03793C7.27895 6.03793 8.06766 6.21867 8.05102 6.22984C8.48156 6.3373 8.55937 6.62219 8.54633 6.84801L8.05039 8.83727C8.08008 8.84484 8.11852 8.85574 8.1609 8.8727C8.12547 8.86391 8.08762 8.85422 8.04855 8.84484L7.3534 11.6315C7.3007 11.7623 7.16719 11.9584 6.86625 11.884C6.87684 11.8994 6.09359 11.6911 6.09359 11.6911L5.56586 12.9078L6.94922 13.2526C7.20656 13.3171 7.45879 13.3846 7.70703 13.4482L7.26711 15.2143L8.32891 15.4792L8.76457 13.7318C9.04615 13.8081 9.32855 13.8814 9.61172 13.9516L9.17754 15.6908L10.2405 15.9557L10.6805 14.1929C12.4931 14.5359 13.8562 14.3975 14.4299 12.7582C14.8923 11.4383 14.4069 10.6769 13.4532 10.1804C14.1477 10.0204 14.6709 9.56355 14.8105 8.61992ZM12.3817 12.0254C12.0532 13.3453 9.83063 12.6317 9.11004 12.4528L9.69379 10.113C10.4143 10.2928 12.725 10.6488 12.3817 12.0254ZM12.7105 8.60086C12.4108 9.80149 10.5609 9.19148 9.96078 9.04195L10.49 6.9198C11.0901 7.06934 13.0227 7.34844 12.7105 8.60086Z" fill="white"/>
</svg>
