<svg width="20" height="20" viewBox="0 0 20 20" fill="none" xmlns="http://www.w3.org/2000/svg">
<path d="M19.375 9.6875C19.375 15.0378 15.0378 19.375 9.6875 19.375C4.33723 19.375 0 15.0378 0 9.6875C0 4.33723 4.33723 0 9.6875 0C15.0378 0 19.375 4.33723 19.375 9.6875ZM13.8418 8.30742C14.0346 7.0184 13.053 6.32543 11.7109 5.86316L12.1463 4.11699L11.0833 3.85211L10.6594 5.55227C10.38 5.48262 10.0929 5.41695 9.80773 5.35187L10.2346 3.64055L9.17223 3.37566L8.73656 5.12121C8.50523 5.06852 8.27816 5.01645 8.05777 4.96168L8.05898 4.95621L6.59297 4.5902L6.3102 5.72543C6.3102 5.72543 7.09891 5.90617 7.08227 5.91734C7.51281 6.0248 7.59062 6.30969 7.57758 6.53551L7.08164 8.52477C7.11133 8.53234 7.14977 8.54324 7.19215 8.5602C7.15672 8.55141 7.11887 8.54172 7.0798 8.53234L6.38465 11.319C6.33195 11.4498 6.19844 11.6459 5.8975 11.5715C5.90809 11.5869 5.12484 11.3786 5.12484 11.3786L4.59711 12.5953L5.98047 12.9401C6.23781 13.0046 6.49004 13.0721 6.73828 13.1357L6.29836 14.9018L7.36016 15.1667L7.79582 13.4193C8.0774 13.4956 8.3598 13.5689 8.64297 13.6391L8.20879 15.3783L9.2718 15.6432L9.71172 13.8804C11.5244 14.2234 12.8875 14.085 13.4612 12.4457C13.9235 11.1258 13.4382 10.3644 12.4845 9.86793C13.179 9.70785 13.7022 9.25105 13.8418 8.30742ZM11.413 11.7129C11.0845 13.0328 8.86188 12.3192 8.14129 12.1403L8.72504 9.80051C9.44559 9.98031 11.7563 10.3363 11.413 11.7129ZM11.7418 8.28836C11.442 9.48898 9.59211 8.87898 8.99203 8.72945L9.52125 6.6073C10.1214 6.75684 12.0539 7.03594 11.7418 8.28836Z" fill="#4B5563"/>
</svg>
