<svg width="30" height="24" viewBox="0 0 30 24" fill="none" xmlns="http://www.w3.org/2000/svg">
<path d="M25.9564 10.4374C25.3441 10.6276 24.7268 10.7503 24.1073 10.805L23.9474 11.811C24.33 11.7572 24.7142 11.7572 25.0968 11.811C25.0968 11.811 25.2467 11.811 25.2667 12.1399C25.279 12.3971 25.2823 12.6557 25.2767 12.9138C25.2663 12.9926 25.2433 13.0631 25.211 13.1152C25.1787 13.1673 25.1388 13.1984 25.0968 13.204C24.9169 13.204 23.6575 13.3587 23.6575 13.3587L23.4577 14.6936C23.4577 14.6936 23.3777 14.9838 23.5476 14.9064C24.0911 14.6699 24.642 14.5019 25.1968 14.4034C25.304 14.4696 25.3957 14.6067 25.456 14.7905C25.5163 14.9744 25.5413 15.1935 25.5266 15.4094C24.9454 16.636 24.1367 17.3665 23.2777 17.4408C23.115 17.4022 22.9597 17.2867 22.8255 17.1045C22.6913 16.9223 22.5823 16.679 22.5081 16.3961C22.1683 15.3514 22.6281 13.3781 22.6281 13.3781C22.6281 13.3781 22.4182 12.4495 22.5781 12.1206C22.6779 11.9878 22.7969 11.9201 22.9179 11.9271L23.2478 10.6309C23.1378 10.6434 23.0278 10.6082 22.9258 10.5278C22.8238 10.4475 22.7323 10.3241 22.6581 10.1666C22.4582 9.66358 22.4482 9.43142 22.5981 9.296C23.4937 8.86556 24.414 8.65753 25.3367 8.67691C25.3367 8.67691 25.7065 8.67691 26.0263 9.81835C26.0263 9.81835 26.1763 10.3214 25.9164 10.4374H25.9564ZM21.9984 15.4094C21.9718 15.5889 21.926 15.7556 21.864 15.8987C21.802 16.0418 21.7252 16.1581 21.6386 16.2402C21.5519 16.3222 21.4573 16.3681 21.3609 16.375C21.2645 16.3819 21.1684 16.3495 21.0789 16.28C20.6391 15.8738 19.9394 13.1266 19.9394 13.1266C19.9394 13.1266 19.6796 12.1012 19.6296 12.1399C19.5796 12.1786 19.5696 11.9271 19.5396 13.0492C19.5097 14.1713 19.5396 16.3381 19.3098 16.6863C19.2632 16.758 19.2093 16.8097 19.1516 16.838C19.0939 16.8663 19.0337 16.8705 18.9751 16.8504C18.9165 16.8303 18.8608 16.7863 18.8117 16.7213C18.7625 16.6563 18.7211 16.5718 18.6901 16.4735C18.5297 15.5118 18.4953 14.4879 18.5901 13.4942C18.6023 12.1121 18.7802 10.7543 19.1099 9.52815C19.1403 9.44433 19.1807 9.37591 19.2277 9.32868C19.2746 9.28145 19.3268 9.2568 19.3797 9.2568C19.4327 9.2568 19.4848 9.28145 19.5318 9.32868C19.5788 9.37591 19.6192 9.44433 19.6496 9.52815C19.9958 10.2305 20.2977 11.0098 20.5491 11.8497L20.6391 12.1786C20.8116 12.7486 21.0018 13.2978 21.2088 13.823C21.2198 13.8421 21.234 13.8526 21.2488 13.8526C21.2635 13.8526 21.2778 13.8421 21.2888 13.823C21.2888 13.823 21.2888 13.2427 21.2888 13.2427C21.1678 11.6156 20.9773 10.0108 20.719 8.44476C20.6851 8.19754 20.6851 7.93747 20.719 7.69025C20.719 7.36136 20.9489 7.51613 20.9489 7.51613C21.4919 8.18482 21.8763 9.24183 22.0184 10.4568C22.2718 12.0646 22.2718 13.7822 22.0184 15.3901L21.9984 15.4094ZM18.4802 9.60554C18.4102 9.8377 18.3802 10.1666 18.0804 10.244C17.0542 10.3355 16.0342 10.6009 15.0319 11.0372C15.0319 11.0372 14.942 11.2693 15.0919 11.3274C15.2418 11.3854 15.9215 11.5595 16.2313 11.5982C16.5412 11.6369 17.7006 11.5982 18.1204 12.6042C18.2933 13.0473 18.3752 13.5987 18.3503 14.1519C18.3503 15.2353 18.2403 15.6222 18.0204 16.0866C17.8005 16.5509 15.8215 18.176 14.5522 15.5449C14.4747 15.387 14.4174 15.1962 14.3849 14.9878C14.3524 14.7794 14.3456 14.5591 14.365 14.3446C14.3845 14.1302 14.4296 13.9275 14.4968 13.753C14.5641 13.5784 14.6515 13.4367 14.7521 13.3394C14.7521 13.3394 15.3218 12.6623 16.7511 13.4555C16.7511 13.4555 17.1809 13.7457 17.1709 14.0552C17.1609 14.3647 16.811 14.7323 16.3213 14.713C16.062 14.7043 15.8079 14.5713 15.5817 14.326C15.6416 14.326 15.0719 13.7843 14.892 14.1906C14.7121 14.5969 14.7621 14.771 14.892 15.0032C15.3364 15.2576 15.8043 15.3185 16.2623 15.1814C16.7202 15.0442 17.1568 14.7125 17.5407 14.21C17.5407 14.21 17.7406 13.765 17.4307 13.4168C16.9416 13.0574 16.4245 12.8611 15.9015 12.8364C15.5817 12.8364 14.3623 12.8364 14.1824 12.2173C14.1824 12.2173 14.0125 11.7917 14.1824 10.5922C14.3523 9.39273 15.7916 8.85103 16.4112 8.65757C16.4112 8.65757 18.1004 8.52214 18.4102 9.19927C18.4238 9.257 18.4307 9.31966 18.4307 9.38306C18.4307 9.44645 18.4238 9.50911 18.4102 9.56685L18.4802 9.60554ZM13.6826 16.9765C13.5624 17.1038 13.4246 17.1555 13.2885 17.1243C13.1523 17.0931 13.0246 16.9806 12.923 16.8024C12.7615 15.7425 12.7138 14.6297 12.7831 13.5328C12.7259 12.0185 12.814 10.4968 13.043 9.0445C13.2529 8.67692 13.3828 9.0445 13.4727 9.23796C13.6037 9.55214 13.6806 9.93772 13.6926 10.3407C13.6926 10.9404 13.7926 13.9585 13.7926 13.9585C13.7926 13.9585 13.8825 16.7056 13.6926 16.9958L13.6826 16.9765ZM15.1519 1.94439C15.002 1.07381 14.1524 1.18988 14.1524 1.18988C13.6317 1.19395 13.124 1.50543 12.6972 2.08273C12.2703 2.66004 11.9446 3.47568 11.7636 4.42072C11.7167 4.76536 11.7198 5.12841 11.7727 5.46979C11.8257 5.81118 11.9263 6.11764 12.0635 6.35536C12.0283 6.49037 12.01 6.63946 12.01 6.79065C12.01 6.94184 12.0283 7.09092 12.0635 7.22594C12.0635 7.38071 12.2434 7.92241 12.4133 7.88372C12.5832 7.84502 12.6132 7.7096 12.7631 7.1679C13.1983 7.51616 13.6872 7.51616 14.1224 7.1679C15.0419 6.54882 15.9515 4.76896 15.9515 3.29863C15.9515 1.82831 15.1519 1.94439 15.1519 1.94439ZM12.3933 5.17523C12.3133 4.94307 12.3233 4.63353 12.4932 4.07249C12.6033 3.74634 12.7507 3.47369 12.9241 3.27573C13.0974 3.07777 13.292 2.95982 13.4927 2.93105C13.0573 3.5402 12.6845 4.30129 12.3933 5.17523ZM15.2918 4.13053C15.0717 4.83754 14.7405 5.38977 14.3467 5.70651C13.9529 6.02326 13.5171 6.08792 13.1029 5.89105C13.5271 4.62396 14.1563 3.66468 14.892 3.16321C15.5217 2.89236 15.2818 4.07249 15.2818 4.07249L15.2918 4.13053ZM29.5945 9.43142C28.725 8.27064 27.3257 11.9658 26.716 13.8037C26.6913 13.0671 26.7708 12.3314 26.9459 11.6756C26.9459 11.6756 27.4656 9.93443 27.5356 9.58619C27.6055 9.23796 27.6555 8.48345 27.5356 8.40607C27.4156 8.32868 27.3157 8.56084 27.3157 8.56084C26.6445 9.69782 26.1816 11.225 25.9964 12.9138C25.8918 13.8254 25.9704 14.78 26.2162 15.5836C25.6501 17.5564 25.3445 19.7694 25.3267 22.0259C25.3628 22.4305 25.4452 22.8143 25.568 23.1491C25.6909 23.4839 25.8509 23.7612 26.0363 23.9605C26.2762 24.154 26.3262 23.5736 26.3262 23.5736C26.4798 21.28 26.7994 19.0396 27.2757 16.9185C28.4951 17.4601 29.4146 15.1579 29.7444 14.0358C30.0743 12.9138 30.1442 10.1859 29.5945 9.43142ZM28.8049 14.0165C28.4913 14.4867 28.1188 14.7871 27.7255 14.8871C28.0838 13.55 28.5344 12.3134 29.0648 11.2113C29.4246 10.4181 29.4846 11.2113 29.4846 11.2113C29.4901 11.7485 29.4316 12.2809 29.3138 12.7673C29.1959 13.2538 29.0218 13.6812 28.8049 14.0165ZM8.03552 2.42805C8.03552 2.42805 4.03755 -1.53795 0.719247 0.667534C0.624207 0.687169 0.533806 0.75715 0.457982 0.869784C0.382158 0.982418 0.323849 1.13334 0.289466 1.30596C0.0995629 1.82831 -0.0703505 2.19589 0.0295986 2.58282C0.129548 2.96975 0.639288 3.16321 1.08906 2.85367C1.08906 2.85367 1.29895 2.60217 1.08906 2.4474C0.959171 2.35453 0.825418 2.28333 0.689262 2.23459C0.689262 2.23459 0.559329 2.23459 0.689262 2.04112C2.10472 1.31592 3.59898 1.41009 4.98707 2.31197C7.65571 3.62752 11.2639 7.78698 11.1639 12.1206C11.064 16.4541 7.55576 16.6476 7.55576 16.6476C6.98932 16.6755 6.42297 16.5847 5.86662 16.3768C5.86662 14.9645 5.81665 12.5075 5.81665 11.0565C7.19594 11.0565 8.57524 11.5015 8.68518 12.1786C8.68518 12.1786 8.75515 12.4688 8.44531 12.759C8.13546 13.0492 7.94556 13.204 8.18544 13.4168C8.36111 13.5768 8.55124 13.6688 8.74515 13.6876C8.95902 13.6191 9.1556 13.4179 9.30523 13.1143C9.45487 12.8108 9.54946 12.4212 9.57473 12.0045C9.62471 10.805 8.91507 9.76031 7.84561 9.39273C7.18964 9.11364 6.51753 9.00306 5.84663 9.06384C5.87237 7.94828 5.79103 6.83314 5.60675 5.77496C5.41685 5.27196 5.21695 4.61419 5.05704 5.36869C4.87333 6.62783 4.77918 7.92958 4.77718 9.23796C3.7763 9.45395 2.82714 10.2116 2.03857 11.4241C1.90674 11.6814 1.83276 12.029 1.83276 12.3914C1.83276 12.7538 1.90674 13.1015 2.03857 13.3587C2.72799 15.0652 3.63346 16.398 4.66723 17.228C4.6801 17.8101 4.75139 18.3818 4.87713 18.9111C5.15698 19.685 5.65673 19.1433 5.7167 19.0079C5.77667 18.8724 5.80665 18.6403 5.82664 18.0212C7.05903 18.6882 8.36233 18.6882 9.59472 18.0212C11.9135 16.6669 12.2434 13.8811 12.3033 12.2173C12.3633 10.5535 11.7936 6.10385 8.03552 2.42805ZM4.69722 15.719C3.78396 15.1274 2.95774 14.1187 2.28845 12.7783C2.25215 12.7178 2.22521 12.639 2.2106 12.5507C2.19599 12.4624 2.19428 12.368 2.20566 12.2779C2.21703 12.1878 2.24106 12.1055 2.27507 12.0402C2.30908 11.9749 2.35176 11.9291 2.39839 11.9078C3.15806 11.3372 3.96265 11.0232 4.77718 10.9791C4.77718 12.2947 4.78717 13.204 4.69722 15.719Z" fill="white"/>
</svg>
