<svg width="12" height="20" viewBox="0 0 12 20" fill="none" xmlns="http://www.w3.org/2000/svg">
<path d="M5.90631 0C6.59771 0 7.15631 0.558594 7.15631 1.25V2.64453C7.21881 2.65234 7.2774 2.66016 7.3399 2.67188C7.35553 2.67578 7.36724 2.67578 7.38287 2.67969L9.25787 3.02344C9.93756 3.14844 10.3868 3.80078 10.2618 4.47656C10.1368 5.15234 9.48443 5.60547 8.80865 5.48047L6.95318 5.14062C5.73053 4.96094 4.6524 5.08203 3.89459 5.38281C3.13678 5.68359 2.83209 6.09766 2.76178 6.48047C2.68365 6.89844 2.74224 7.13281 2.80865 7.27734C2.87896 7.42969 3.02349 7.60156 3.30865 7.79297C3.94537 8.21094 4.92193 8.48438 6.18756 8.82031L6.30084 8.85156C7.41803 9.14844 8.78521 9.50781 9.80084 10.1719C10.3555 10.5352 10.879 11.0273 11.2032 11.7148C11.5352 12.4141 11.6055 13.1953 11.4532 14.0273C11.1837 15.5117 10.1602 16.5039 8.89068 17.0234C8.35553 17.2422 7.77349 17.3828 7.15631 17.4531V18.75C7.15631 19.4414 6.59771 20 5.90631 20C5.2149 20 4.65631 19.4414 4.65631 18.75V17.3867C4.64068 17.3828 4.62115 17.3828 4.60553 17.3789H4.59771C3.64459 17.2305 2.07818 16.8203 1.02349 16.3516C0.394588 16.0703 0.109431 15.332 0.390681 14.7031C0.671931 14.0742 1.41021 13.7891 2.03912 14.0703C2.85553 14.4336 4.19928 14.793 4.97662 14.9141C6.22271 15.0977 7.25006 14.9922 7.94537 14.707C8.60553 14.4375 8.90631 14.0469 8.99224 13.5781C9.06646 13.1641 9.00787 12.9258 8.94146 12.7812C8.86724 12.625 8.72271 12.4531 8.43365 12.2617C7.79303 11.8438 6.81256 11.5703 5.54303 11.2344L5.43365 11.207C4.32037 10.9102 2.95318 10.5469 1.93756 9.88281C1.38287 9.51953 0.863338 9.02344 0.539119 8.33594C0.210994 7.63672 0.144588 6.85547 0.300838 6.02344C0.582088 4.53125 1.69928 3.5625 2.96881 3.05859C3.48834 2.85156 4.05865 2.71094 4.65631 2.62891V1.25C4.65631 0.558594 5.2149 0 5.90631 0Z" fill="white"/>
</svg>
