<svg width="17" height="16" viewBox="0 0 17 16" fill="none" xmlns="http://www.w3.org/2000/svg">
<path d="M9.15625 1C9.15625 0.446875 8.70938 0 8.15625 0C7.60313 0 7.15625 0.446875 7.15625 1V8.58438L4.8625 6.29063C4.47188 5.9 3.8375 5.9 3.44688 6.29063C3.05625 6.68125 3.05625 7.31563 3.44688 7.70625L7.44688 11.7063C7.8375 12.0969 8.47188 12.0969 8.8625 11.7063L12.8625 7.70625C13.2531 7.31563 13.2531 6.68125 12.8625 6.29063C12.4719 5.9 11.8375 5.9 11.4469 6.29063L9.15625 8.58438V1ZM2.15625 11C1.05313 11 0.15625 11.8969 0.15625 13V14C0.15625 15.1031 1.05313 16 2.15625 16H14.1562C15.2594 16 16.1562 15.1031 16.1562 14V13C16.1562 11.8969 15.2594 11 14.1562 11H10.9844L9.56875 12.4156C8.7875 13.1969 7.52187 13.1969 6.74062 12.4156L5.32812 11H2.15625ZM13.6562 12.75C13.8552 12.75 14.0459 12.829 14.1866 12.9697C14.3272 13.1103 14.4062 13.3011 14.4062 13.5C14.4062 13.6989 14.3272 13.8897 14.1866 14.0303C14.0459 14.171 13.8552 14.25 13.6562 14.25C13.4573 14.25 13.2666 14.171 13.1259 14.0303C12.9853 13.8897 12.9062 13.6989 12.9062 13.5C12.9062 13.3011 12.9853 13.1103 13.1259 12.9697C13.2666 12.829 13.4573 12.75 13.6562 12.75Z" fill="white"/>
</svg>
