<svg width="21" height="20" viewBox="0 0 21 20" fill="none" xmlns="http://www.w3.org/2000/svg">
<path d="M8.09766 2.6875L9.45703 5H9.40625H6.59375C5.73047 5 5.03125 4.30078 5.03125 3.4375C5.03125 2.57422 5.73047 1.875 6.59375 1.875H6.67969C7.26172 1.875 7.80469 2.18359 8.09766 2.6875ZM3.15625 3.4375C3.15625 4 3.29297 4.53125 3.53125 5H1.90625C1.21484 5 0.65625 5.55859 0.65625 6.25V8.75C0.65625 9.44141 1.21484 10 1.90625 10H19.4062C20.0977 10 20.6562 9.44141 20.6562 8.75V6.25C20.6562 5.55859 20.0977 5 19.4062 5H17.7812C18.0195 4.53125 18.1562 4 18.1562 3.4375C18.1562 1.53906 16.6172 0 14.7188 0H14.6328C13.3867 0 12.2305 0.660156 11.5977 1.73438L10.6562 3.33984L9.71484 1.73828C9.08203 0.660156 7.92578 0 6.67969 0H6.59375C4.69531 0 3.15625 1.53906 3.15625 3.4375ZM16.2812 3.4375C16.2812 4.30078 15.582 5 14.7188 5H11.9062H11.8555L13.2148 2.6875C13.5117 2.18359 14.0508 1.875 14.6328 1.875H14.7188C15.582 1.875 16.2812 2.57422 16.2812 3.4375ZM1.90625 11.25V18.125C1.90625 19.1602 2.74609 20 3.78125 20H9.40625V11.25H1.90625ZM11.9062 20H17.5312C18.5664 20 19.4062 19.1602 19.4062 18.125V11.25H11.9062V20Z" fill="white"/>
</svg>
