<svg width="24" height="24" viewBox="0 0 24 24" fill="none" xmlns="http://www.w3.org/2000/svg">
<path d="M12.0003 0C5.37253 0 0 5.37253 0 12C0 18.6275 5.37253 24 12 24C18.6269 24 24 18.6272 24 12C24 5.3728 18.6272 0 12.0003 0ZM12.0003 21.6C6.69867 21.6 2.4 17.3016 2.4 12C2.4 6.69867 6.6984 2.4 12 2.4C17.3013 2.4 21.6 6.69867 21.6 12C21.6003 17.3016 17.3016 21.6 12.0003 21.6ZM16.3947 15.2157C16.4717 16.2365 15.7056 17.1659 14.6821 17.2933C13.6603 17.4203 12.7661 16.696 12.6896 15.6755C12.6115 14.656 13.3803 13.7253 14.4021 13.5989C14.7102 13.5597 15.0233 13.5999 15.3115 13.7157V8.704L10.5115 9.59653V15.8579H10.5021C10.5045 15.8755 10.5091 15.8917 10.5091 15.9093C10.5867 16.9301 9.82 17.8584 8.79813 17.9859C7.77387 18.1125 6.88347 17.3883 6.80587 16.3688C6.7272 15.348 7.49387 14.4179 8.5168 14.2923C8.82503 14.2522 9.13838 14.2929 9.42613 14.4104V7.19173L16.3893 6.0024L16.396 6V6.00107L16.3987 6L16.396 6.032V15.1653H16.3867C16.3901 15.1829 16.3933 15.1979 16.3947 15.2157Z" fill="white"/>
</svg>
