<svg width="16" height="18" viewBox="0 0 16 18" fill="none" xmlns="http://www.w3.org/2000/svg">
<path d="M5.00776 10.5586C4.87104 11.3086 4.32808 14.8047 4.16792 15.793C4.1562 15.8633 4.12886 15.8906 4.05073 15.8906H1.13667C0.839794 15.8906 0.62495 15.6328 0.664012 15.3477L2.95307 0.820321C3.01167 0.445321 3.34761 0.160165 3.73433 0.160165C9.68354 0.160165 10.1835 0.0156336 11.7031 0.605477C14.0507 1.51563 14.2656 3.71095 13.4218 6.08595C12.582 8.53126 10.5898 9.58204 7.94917 9.61329C6.25386 9.64063 5.23433 9.33985 5.00776 10.5586ZM14.6054 4.93751C14.5351 4.88673 14.5078 4.8672 14.4882 4.98829C14.4101 5.4336 14.289 5.8672 14.1445 6.30079C12.5859 10.7461 8.26557 10.3594 6.1562 10.3594C5.91792 10.3594 5.76167 10.4883 5.73042 10.7266C4.84761 16.2109 4.67183 17.3555 4.67183 17.3555C4.63276 17.6328 4.80854 17.8594 5.08589 17.8594H7.56636C7.90229 17.8594 8.17964 17.6133 8.24604 17.2774C8.27339 17.0664 8.20307 17.5156 8.80854 13.7109C8.98823 12.8516 9.36714 12.9414 9.95307 12.9414C12.7265 12.9414 14.8906 11.8164 15.5351 8.5547C15.789 7.19532 15.7148 5.76563 14.6054 4.93751Z" fill="white"/>
</svg>
