<svg width="15" height="18" viewBox="0 0 15 18" fill="none" xmlns="http://www.w3.org/2000/svg">
<path d="M4.34834 10.4141C4.21162 11.1641 3.66865 14.6602 3.5085 15.6484C3.49678 15.7188 3.46943 15.7461 3.39131 15.7461H0.477245C0.18037 15.7461 -0.0344738 15.4883 0.00458867 15.2031L2.29365 0.67579C2.35224 0.30079 2.68818 0.0156337 3.0749 0.0156337C9.02412 0.0156337 9.52412 -0.128898 11.0437 0.460946C13.3913 1.3711 13.6062 3.56641 12.7624 5.94141C11.9226 8.38673 9.93037 9.43751 7.28974 9.46876C5.59443 9.4961 4.5749 9.19532 4.34834 10.4141ZM13.946 4.79298C13.8757 4.7422 13.8483 4.72266 13.8288 4.84376C13.7507 5.28907 13.6296 5.72266 13.4851 6.15626C11.9265 10.6016 7.60615 10.2149 5.49678 10.2149C5.25849 10.2149 5.10224 10.3438 5.07099 10.582C4.18818 16.0664 4.0124 17.2109 4.0124 17.2109C3.97334 17.4883 4.14912 17.7149 4.42646 17.7149H6.90693C7.24287 17.7149 7.52021 17.4688 7.58662 17.1328C7.61396 16.9219 7.54365 17.3711 8.14912 13.5664C8.32881 12.707 8.70771 12.7969 9.29365 12.7969C12.0671 12.7969 14.2312 11.6719 14.8757 8.41017C15.1296 7.05079 15.0554 5.6211 13.946 4.79298Z" fill="#4B5563"/>
</svg>
