<svg width="26" height="12" viewBox="0 0 26 12" fill="none" xmlns="http://www.w3.org/2000/svg">
<path d="M5.22276 2.19141C4.92979 2.53906 4.46104 2.8125 3.99229 2.77344C3.9337 2.30469 4.16417 1.80469 4.4337 1.5C4.72667 1.14453 5.23838 0.890625 5.65635 0.871094C5.70323 1.35547 5.51182 1.83594 5.22276 2.19141ZM5.64854 2.86328C4.96885 2.82422 4.38682 3.25 4.06651 3.25C3.73838 3.25 3.2462 2.88281 2.70713 2.89453C2.00792 2.90625 1.35948 3.30078 1.00401 3.92969C0.269634 5.19141 0.812603 7.05469 1.52354 8.08203C1.8712 8.58984 2.28526 9.14844 2.83213 9.12891C3.35167 9.10938 3.55479 8.79297 4.17979 8.79297C4.8087 8.79297 4.99229 9.12891 5.53917 9.12109C6.10557 9.10938 6.46104 8.61328 6.8087 8.10547C7.20323 7.52734 7.36729 6.96875 7.3751 6.9375C7.36338 6.92578 6.28135 6.51172 6.26963 5.26172C6.25792 4.21484 7.1251 3.71875 7.16417 3.6875C6.67588 2.96094 5.91417 2.88281 5.64854 2.86328ZM9.57042 1.44922V9.0625H10.754V6.46094H12.3907C13.8868 6.46094 14.9337 5.43359 14.9337 3.94922C14.9337 2.46484 13.9024 1.44922 12.4298 1.44922H9.57042ZM10.754 2.44531H12.1173C13.1446 2.44531 13.7306 2.99219 13.7306 3.95313C13.7306 4.91406 13.1446 5.46875 12.1134 5.46875H10.754V2.44531ZM17.0899 9.12109C17.8321 9.12109 18.5196 8.74609 18.8321 8.14844H18.8556V9.0625H19.9493V5.27344C19.9493 4.17578 19.0704 3.46484 17.7189 3.46484C16.4649 3.46484 15.5353 4.18359 15.5001 5.16797H16.5665C16.6564 4.69922 17.0899 4.39063 17.6837 4.39063C18.4064 4.39063 18.8126 4.72656 18.8126 5.34766V5.76953L17.336 5.85938C15.9649 5.94141 15.2228 6.50391 15.2228 7.48047C15.2267 8.46484 15.9923 9.12109 17.0899 9.12109ZM17.4103 8.21875C16.7814 8.21875 16.379 7.91406 16.379 7.45313C16.379 6.97266 16.7657 6.69531 17.504 6.65234L18.8165 6.57031V7C18.8165 7.71094 18.211 8.21875 17.4103 8.21875ZM21.4142 11.1328C22.5665 11.1328 23.1095 10.6914 23.5821 9.35938L25.6564 3.53906H24.4532L23.0626 8.03516H23.0392L21.6485 3.53906H20.4142L22.4142 9.08203L22.3048 9.41797C22.1251 9.98828 21.8321 10.2109 21.3087 10.2109C21.2149 10.2109 21.0353 10.1992 20.961 10.1914V11.1055C21.0314 11.1211 21.3243 11.1328 21.4142 11.1328Z" fill="white"/>
</svg>
