<svg width="24" height="24" viewBox="0 0 24 24" fill="none" xmlns="http://www.w3.org/2000/svg">
<path d="M24 23.5884L23.6349 23.6689L23.8219 24L23.545 23.699L22.9421 23.4422C22.8886 23.4991 22.7982 23.5381 22.6589 23.5039C22.2904 23.4128 22.2796 23.6075 21.8704 23.4598C21.7866 23.4291 21.8148 23.4997 21.5502 23.4132C21.3662 23.3535 21.2421 23.0481 21.1191 23.0219C19.9318 22.77 20.4022 21.7662 20.5662 21.5676C20.7698 21.3203 20.6006 21.2356 20.5103 21.3245C20.3695 21.4641 20.1952 21.693 19.8606 22.0196C18.7141 23.1405 16.5785 22.0009 17.0614 20.2453C17.5165 18.5919 19.3258 16.965 20.0823 16.2011C20.7667 15.5099 21.9561 13.6206 20.4053 12.9241C19.8781 12.687 19.4257 12.6689 19.0405 12.7653C19.5816 13.6399 19.5503 14.7456 18.9111 15.4042C18.0311 16.3103 17.3847 15.8089 17.3847 15.8089C18.4087 15.8097 19.6948 14.525 18.6351 13.1486C18.5926 13.0935 18.5472 13.0408 18.4989 12.9907C18.045 13.2572 17.7188 13.6489 17.4974 13.8653C17.3992 13.9617 16.5024 15.0945 15.3878 15.0702C15.4855 16.2458 14.6275 17.4409 13.4511 18.0818C13.2971 18.1653 13.1355 18.234 12.9684 18.2872C12.8531 19.166 12.4172 20.1584 11.0612 20.5369C8.99554 21.1135 8.11583 19.5872 7.78662 18.6867C7.50456 17.9158 6.74875 14.457 6.62155 13.8968C6.50077 13.3627 5.74509 12.4051 5.02106 12.9901C4.46258 13.4407 4.81422 14.4491 4.89887 14.8372C4.98983 15.2547 4.61602 15.7658 4.10037 15.6888C3.48243 15.5966 3.36668 15.034 3.29584 14.8527C3.14632 14.4709 2.7975 14.6596 2.72732 14.7052C2.62148 14.7729 2.5515 15.0789 2.38302 15.1742C2.14113 15.311 2.15505 15.2364 2.07882 15.2824C1.70776 15.5087 1.6574 15.3204 1.31495 15.4818C1.20817 15.5323 1.12366 15.5274 1.06143 15.4989C1.04061 15.4856 1.0266 15.4718 1.00696 15.454L0.467034 15.7935L0.242068 16.1337L0.380899 15.7896L0 15.7557L0.406713 15.699L0.939863 15.3639C0.91264 15.2846 0.923022 15.1761 1.04664 15.0716C1.33525 14.8274 1.18223 14.7055 1.54196 14.4616C1.61583 14.4119 1.54132 14.3937 1.76633 14.231C1.92238 14.1177 2.24523 14.1954 2.33867 14.1111C3.2363 13.3014 3.78619 14.2645 3.85359 14.5127C3.93764 14.8205 4.10608 14.7336 4.08566 14.6093C4.05256 14.4144 3.96661 14.1409 3.89343 13.6811C3.64108 12.1041 5.8199 11.0467 6.97901 12.4583C8.07 13.7875 8.35156 16.1929 8.53766 17.247C8.70693 18.2009 9.56402 20.2597 11.0379 19.4155C11.5394 19.1287 11.8172 18.7747 11.9627 18.4085C10.9299 18.3354 10.0411 17.6659 9.87331 16.7669C9.64257 15.5311 10.4301 15.302 10.4301 15.302C9.8327 16.1267 10.1386 17.9107 11.8845 17.8584C11.9544 17.8562 12.0241 17.8503 12.0933 17.8407C12.1388 17.32 12.0077 16.8289 11.9592 16.525C11.9378 16.3943 11.5596 15.1061 12.13 14.2222C11.0607 13.7865 10.3587 12.5473 10.2637 11.2557C10.2505 11.0768 10.2557 10.9034 10.2758 10.7356C9.51764 10.2651 8.78958 9.45883 9.00739 8.0797C9.33891 5.97843 11.1051 5.8217 12.0686 5.90015C12.8927 5.96715 16.3806 6.72723 16.947 6.84566C17.4876 6.95911 18.6806 6.67706 18.4461 5.78136C18.2648 5.09051 17.1935 4.98715 16.8028 4.90209C16.3811 4.81016 16.0687 4.26013 16.3542 3.82777C16.6964 3.30951 17.2605 3.43964 17.4558 3.45093C17.8691 3.47498 17.8407 3.0822 17.8282 2.99993C17.81 2.87615 17.5587 2.6857 17.5415 2.49498C17.5167 2.22014 17.5794 2.26359 17.5688 2.17581C17.5155 1.74694 17.7093 1.78082 17.7036 1.4044C17.702 1.29051 17.7399 1.21767 17.7896 1.17342L17.7914 1.1754L17.8061 1.15988L17.8207 1.14877V1.1482C17.8353 1.13864 17.8513 1.13117 17.8681 1.126L17.7634 0.407194L17.5424 0.0637126L17.8027 0.33078L17.9903 1.31359e-07L17.8758 0.391182L17.9816 1.11709C18.0618 1.12981 18.1496 1.18656 18.1918 1.33349C18.2956 1.69533 18.4711 1.60809 18.5447 2.03373C18.56 2.12091 18.607 2.06137 18.6631 2.33179C18.7025 2.51963 18.4965 2.7783 18.5345 2.89723C18.9032 4.04391 17.7906 4.13761 17.5354 4.0955C17.2179 4.04289 17.2271 4.23072 17.3501 4.2637C17.5426 4.31578 17.8291 4.35216 18.2813 4.47736C19.8328 4.90787 19.8951 7.31066 18.1178 7.76689C16.4434 8.1962 14.12 7.44742 13.0759 7.1762C12.1305 6.93091 9.88516 6.84544 10.0454 8.52536C10.0996 9.09665 10.3081 9.49461 10.5836 9.77791C11.0812 8.87855 12.0655 8.35666 12.9597 8.58C14.1904 8.88645 14.0719 9.6915 14.0719 9.6915C13.5641 8.81044 11.801 8.34183 11.1211 9.93678C11.0943 10.0007 11.0707 10.0659 11.0504 10.1322C11.5094 10.3905 12.0141 10.4766 12.3136 10.5595C12.4497 10.597 13.9462 10.8145 14.4483 11.8401C15.3634 11.1867 16.756 11.2098 17.906 11.7566C18.0693 11.8337 18.2187 11.9248 18.3557 12.0251C19.144 11.6067 20.2121 11.3806 21.3118 12.2524C22.9875 13.5814 22.2475 15.1784 21.7006 15.9684C21.2323 16.6441 18.8353 19.2671 18.4493 19.6955C18.0827 20.1045 17.7363 21.2702 18.6376 21.5133C19.3324 21.7007 19.9553 20.8302 20.2241 20.5359C20.5138 20.2193 21.1502 20.2232 21.3877 20.6836C21.6718 21.2354 21.2773 21.6562 21.1704 21.8186C20.9442 22.1619 21.302 22.3323 21.3802 22.363C21.4975 22.4085 21.7892 22.2867 21.9651 22.3672C22.2184 22.4823 22.1492 22.5147 22.2312 22.5492C22.6332 22.7165 22.5076 22.8664 22.8394 23.0484C22.9309 23.0985 22.9769 23.1592 22.9954 23.2184L22.992 23.23C23.0067 23.2811 23.005 23.3161 22.9976 23.3439L23.5898 23.5959L24 23.5884ZM12.9718 17.1032C12.9831 17.2128 12.9933 17.3411 12.9995 17.4827C13.5697 17.0971 13.9828 16.4739 14.1762 15.899C14.4558 15.0634 14.1457 14.4754 13.8094 14.4374C12.6908 14.3105 12.8858 16.2483 12.9718 17.1032ZM11.3603 11.2315C11.255 11.1956 11.133 11.1519 10.9999 11.0982C11.1167 11.7724 11.5163 12.4044 11.9634 12.818C12.6129 13.4183 13.2814 13.3837 13.4565 13.0964C14.0386 12.1419 12.1797 11.5104 11.3603 11.2315ZM15.693 12.4433C14.8444 12.7036 14.5431 13.2964 14.7073 13.5895C15.2544 14.5647 16.7309 13.2795 17.3822 12.7124C17.4656 12.6396 17.5645 12.5562 17.6778 12.4689C17.0293 12.2342 16.2769 12.2636 15.693 12.4433Z" fill="white"/>
</svg>
