<svg width="15" height="14" viewBox="0 0 15 14" fill="none" xmlns="http://www.w3.org/2000/svg">
<path d="M3.96562 3.46683C5.90937 1.52308 9.05 1.5137 11.0063 3.43558L9.71875 4.71995C9.50312 4.93558 9.44062 5.25745 9.55625 5.5387C9.67187 5.81995 9.94688 6.0012 10.25 6.0012H13.9844H14.25C14.6656 6.0012 15 5.66683 15 5.2512V1.2512C15 0.948075 14.8188 0.673075 14.5375 0.55745C14.2563 0.441825 13.9344 0.504325 13.7188 0.71995L12.4187 2.01995C9.68125 -0.683175 5.27187 -0.6738 2.55 2.0512C1.7875 2.8137 1.2375 3.71057 0.9 4.66995C0.715625 5.19183 0.990625 5.76058 1.50938 5.94495C2.02813 6.12933 2.6 5.85433 2.78437 5.33558C3.025 4.65433 3.41562 4.0137 3.96562 3.46683ZM0 8.7512V8.9887V9.01058V12.7512C0 13.0543 0.18125 13.3293 0.4625 13.445C0.74375 13.5606 1.06562 13.4981 1.28125 13.2825L2.58125 11.9825C5.31875 14.6856 9.72812 14.6762 12.45 11.9512C13.2125 11.1887 13.7656 10.2918 14.1031 9.33558C14.2875 8.8137 14.0125 8.24495 13.4937 8.06058C12.975 7.8762 12.4031 8.1512 12.2188 8.66995C11.9781 9.3512 11.5875 9.99183 11.0375 10.5387C9.09375 12.4825 5.95312 12.4918 3.99687 10.57L5.28125 9.28245C5.49688 9.06683 5.55937 8.74495 5.44375 8.4637C5.32812 8.18245 5.05312 8.0012 4.75 8.0012H1.0125H0.990625H0.75C0.334375 8.0012 0 8.33558 0 8.7512Z" fill="#3B82F6"/>
</svg>
