<svg width="16" height="16" viewBox="0 0 16 16" fill="none" xmlns="http://www.w3.org/2000/svg">
<path d="M0 6.99979C0 7.55292 0.446875 7.99979 1 7.99979C1.55313 7.99979 2 7.55292 2 6.99979C2 5.34354 3.34375 3.99979 5 3.99979H10V4.99979C10 5.40292 10.2437 5.76854 10.6187 5.92479C10.9937 6.08104 11.4219 5.99354 11.7094 5.70917L13.7094 3.70917C14.1 3.31854 14.1 2.68417 13.7094 2.29354L11.7094 0.293544C11.4219 0.00604382 10.9937 -0.0783312 10.6187 0.0779188C10.2437 0.234169 10 0.596669 10 0.999794V1.99979H5C2.2375 1.99979 0 4.23729 0 6.99979ZM16 8.99979C16 8.44667 15.5531 7.99979 15 7.99979C14.4469 7.99979 14 8.44667 14 8.99979C14 10.656 12.6562 11.9998 11 11.9998H6V10.9998C6 10.5967 5.75625 10.231 5.38125 10.0748C5.00625 9.91854 4.57812 10.006 4.29063 10.2904L2.29063 12.2904C1.9 12.681 1.9 13.3154 2.29063 13.706L4.29063 15.706C4.57812 15.9935 5.00625 16.0779 5.38125 15.9217C5.75625 15.7654 6 15.4029 6 14.9967V13.9998H11C13.7625 13.9998 16 11.7623 16 8.99979Z" fill="white"/>
</svg>
